<mxfile host="app.diagrams.net" modified="2024-01-28T16:23:48.772Z" agent="Mozilla/5.0 (Windows NT 10.0; Win64; x64) AppleWebKit/537.36 (KHTML, like Gecko) Chrome/120.0.0.0 Safari/537.36" etag="ACnVjsmIJvp9d15Zbmhw" version="23.0.2" type="onedrive">
  <diagram name="Page-1" id="AYgA5iGqDgiPhn8fEWPs">
    <mxGraphModel grid="0" page="1" gridSize="10" guides="1" tooltips="1" connect="1" arrows="1" fold="1" pageScale="1" pageWidth="827" pageHeight="1169" math="0" shadow="0">
      <root>
        <mxCell id="0" />
        <mxCell id="1" parent="0" />
        <mxCell id="pMuibLVsuA4GQpmYCpPP-35" value="" style="rounded=0;whiteSpace=wrap;html=1;" vertex="1" parent="1">
          <mxGeometry x="2543" y="1706" width="140" height="78" as="geometry" />
        </mxCell>
        <mxCell id="pMuibLVsuA4GQpmYCpPP-34" value="" style="rounded=0;whiteSpace=wrap;html=1;" vertex="1" parent="1">
          <mxGeometry x="2716" y="1706" width="263" height="321" as="geometry" />
        </mxCell>
        <mxCell id="pMuibLVsuA4GQpmYCpPP-33" value="" style="rounded=0;whiteSpace=wrap;html=1;" vertex="1" parent="1">
          <mxGeometry x="3030" y="1791" width="230" height="79" as="geometry" />
        </mxCell>
        <mxCell id="pMuibLVsuA4GQpmYCpPP-32" value="" style="rounded=0;whiteSpace=wrap;html=1;" vertex="1" parent="1">
          <mxGeometry x="3030" y="1216" width="230" height="496" as="geometry" />
        </mxCell>
        <mxCell id="pMuibLVsuA4GQpmYCpPP-31" value="" style="rounded=0;whiteSpace=wrap;html=1;" vertex="1" parent="1">
          <mxGeometry x="2537" y="1207" width="336" height="391" as="geometry" />
        </mxCell>
        <mxCell id="FPbXuBb9ZGc2-HrZ0QQq-38" style="edgeStyle=orthogonalEdgeStyle;rounded=0;orthogonalLoop=1;jettySize=auto;html=1;endArrow=none;endFill=0;startArrow=block;startFill=1;" edge="1" parent="1" source="FPbXuBb9ZGc2-HrZ0QQq-135" target="FPbXuBb9ZGc2-HrZ0QQq-12">
          <mxGeometry relative="1" as="geometry">
            <mxPoint x="588.5" y="210" as="sourcePoint" />
            <Array as="points">
              <mxPoint x="483" y="362" />
              <mxPoint x="655" y="362" />
            </Array>
          </mxGeometry>
        </mxCell>
        <mxCell id="FPbXuBb9ZGc2-HrZ0QQq-5" value="MasterVehicle" style="swimlane;fontStyle=1;align=center;verticalAlign=top;childLayout=stackLayout;horizontal=1;startSize=26;horizontalStack=0;resizeParent=1;resizeParentMax=0;resizeLast=0;collapsible=1;marginBottom=0;whiteSpace=wrap;html=1;" vertex="1" parent="1">
          <mxGeometry x="123" y="398" width="236" height="453" as="geometry" />
        </mxCell>
        <mxCell id="FPbXuBb9ZGc2-HrZ0QQq-6" value="+ slaves: SlaveVehicle[]" style="text;strokeColor=none;fillColor=none;align=left;verticalAlign=top;spacingLeft=4;spacingRight=4;overflow=hidden;rotatable=0;points=[[0,0.5],[1,0.5]];portConstraint=eastwest;whiteSpace=wrap;html=1;" vertex="1" parent="FPbXuBb9ZGc2-HrZ0QQq-5">
          <mxGeometry y="26" width="236" height="26" as="geometry" />
        </mxCell>
        <mxCell id="FPbXuBb9ZGc2-HrZ0QQq-141" value="+ server: Server" style="text;strokeColor=none;fillColor=none;align=left;verticalAlign=top;spacingLeft=4;spacingRight=4;overflow=hidden;rotatable=0;points=[[0,0.5],[1,0.5]];portConstraint=eastwest;whiteSpace=wrap;html=1;" vertex="1" parent="FPbXuBb9ZGc2-HrZ0QQq-5">
          <mxGeometry y="52" width="236" height="26" as="geometry" />
        </mxCell>
        <mxCell id="SLA6O7EeEmOgQ9OaSCsO-3" value="+ showStopSign: bool" style="text;strokeColor=none;fillColor=none;align=left;verticalAlign=top;spacingLeft=4;spacingRight=4;overflow=hidden;rotatable=0;points=[[0,0.5],[1,0.5]];portConstraint=eastwest;whiteSpace=wrap;html=1;" vertex="1" parent="FPbXuBb9ZGc2-HrZ0QQq-5">
          <mxGeometry y="78" width="236" height="26" as="geometry" />
        </mxCell>
        <mxCell id="FPbXuBb9ZGc2-HrZ0QQq-7" value="" style="line;strokeWidth=1;fillColor=none;align=left;verticalAlign=middle;spacingTop=-1;spacingLeft=3;spacingRight=3;rotatable=0;labelPosition=right;points=[];portConstraint=eastwest;strokeColor=inherit;" vertex="1" parent="FPbXuBb9ZGc2-HrZ0QQq-5">
          <mxGeometry y="104" width="236" height="8" as="geometry" />
        </mxCell>
        <mxCell id="SLA6O7EeEmOgQ9OaSCsO-1" value="+ getLongtitude(): Float" style="text;strokeColor=none;fillColor=none;align=left;verticalAlign=top;spacingLeft=4;spacingRight=4;overflow=hidden;rotatable=0;points=[[0,0.5],[1,0.5]];portConstraint=eastwest;whiteSpace=wrap;html=1;" vertex="1" parent="FPbXuBb9ZGc2-HrZ0QQq-5">
          <mxGeometry y="112" width="236" height="29" as="geometry" />
        </mxCell>
        <mxCell id="SLA6O7EeEmOgQ9OaSCsO-2" value="+ getLatitude(): Float" style="text;strokeColor=none;fillColor=none;align=left;verticalAlign=top;spacingLeft=4;spacingRight=4;overflow=hidden;rotatable=0;points=[[0,0.5],[1,0.5]];portConstraint=eastwest;whiteSpace=wrap;html=1;" vertex="1" parent="FPbXuBb9ZGc2-HrZ0QQq-5">
          <mxGeometry y="141" width="236" height="29" as="geometry" />
        </mxCell>
        <mxCell id="FPbXuBb9ZGc2-HrZ0QQq-8" value="+ accelerate(speed: Float): void {send signal to slaves}" style="text;strokeColor=none;fillColor=none;align=left;verticalAlign=top;spacingLeft=4;spacingRight=4;overflow=hidden;rotatable=0;points=[[0,0.5],[1,0.5]];portConstraint=eastwest;whiteSpace=wrap;html=1;" vertex="1" parent="FPbXuBb9ZGc2-HrZ0QQq-5">
          <mxGeometry y="170" width="236" height="39" as="geometry" />
        </mxCell>
        <mxCell id="FPbXuBb9ZGc2-HrZ0QQq-134" value="+ updateLocation(): void {send current location to the server}" style="text;strokeColor=none;fillColor=none;align=left;verticalAlign=top;spacingLeft=4;spacingRight=4;overflow=hidden;rotatable=0;points=[[0,0.5],[1,0.5]];portConstraint=eastwest;whiteSpace=wrap;html=1;" vertex="1" parent="FPbXuBb9ZGc2-HrZ0QQq-5">
          <mxGeometry y="209" width="236" height="39" as="geometry" />
        </mxCell>
        <mxCell id="FPbXuBb9ZGc2-HrZ0QQq-9" value="+ steer(degree: Float): void {send signal to slaves}" style="text;strokeColor=none;fillColor=none;align=left;verticalAlign=top;spacingLeft=4;spacingRight=4;overflow=hidden;rotatable=0;points=[[0,0.5],[1,0.5]];portConstraint=eastwest;whiteSpace=wrap;html=1;" vertex="1" parent="FPbXuBb9ZGc2-HrZ0QQq-5">
          <mxGeometry y="248" width="236" height="41" as="geometry" />
        </mxCell>
        <mxCell id="FPbXuBb9ZGc2-HrZ0QQq-11" value="+ break(pressure: Float): void {send signal to slaves}" style="text;strokeColor=none;fillColor=none;align=left;verticalAlign=top;spacingLeft=4;spacingRight=4;overflow=hidden;rotatable=0;points=[[0,0.5],[1,0.5]];portConstraint=eastwest;whiteSpace=wrap;html=1;" vertex="1" parent="FPbXuBb9ZGc2-HrZ0QQq-5">
          <mxGeometry y="289" width="236" height="37" as="geometry" />
        </mxCell>
        <mxCell id="FPbXuBb9ZGc2-HrZ0QQq-20" value="+ pingAllSlaves(): void {check if all slaves are still connected}" style="text;strokeColor=none;fillColor=none;align=left;verticalAlign=top;spacingLeft=4;spacingRight=4;overflow=hidden;rotatable=0;points=[[0,0.5],[1,0.5]];portConstraint=eastwest;whiteSpace=wrap;html=1;" vertex="1" parent="FPbXuBb9ZGc2-HrZ0QQq-5">
          <mxGeometry y="326" width="236" height="42" as="geometry" />
        </mxCell>
        <mxCell id="SLA6O7EeEmOgQ9OaSCsO-4" value="+ pingSlave(slave: Slave): void {check if slave is still reachable}" style="text;strokeColor=none;fillColor=none;align=left;verticalAlign=top;spacingLeft=4;spacingRight=4;overflow=hidden;rotatable=0;points=[[0,0.5],[1,0.5]];portConstraint=eastwest;whiteSpace=wrap;html=1;" vertex="1" parent="FPbXuBb9ZGc2-HrZ0QQq-5">
          <mxGeometry y="368" width="236" height="42" as="geometry" />
        </mxCell>
        <mxCell id="FPbXuBb9ZGc2-HrZ0QQq-19" value="+ setShowStopSign(bool newValue): void {show or hide &quot;stop&quot; signal to driver}" style="text;strokeColor=none;fillColor=none;align=left;verticalAlign=top;spacingLeft=4;spacingRight=4;overflow=hidden;rotatable=0;points=[[0,0.5],[1,0.5]];portConstraint=eastwest;whiteSpace=wrap;html=1;" vertex="1" parent="FPbXuBb9ZGc2-HrZ0QQq-5">
          <mxGeometry y="410" width="236" height="43" as="geometry" />
        </mxCell>
        <mxCell id="FPbXuBb9ZGc2-HrZ0QQq-12" value="SlaveVehicle" style="swimlane;fontStyle=1;align=center;verticalAlign=top;childLayout=stackLayout;horizontal=1;startSize=26;horizontalStack=0;resizeParent=1;resizeParentMax=0;resizeLast=0;collapsible=1;marginBottom=0;whiteSpace=wrap;html=1;" vertex="1" parent="1">
          <mxGeometry x="537" y="393" width="236" height="457" as="geometry" />
        </mxCell>
        <mxCell id="FPbXuBb9ZGc2-HrZ0QQq-143" value="+ server: Server" style="text;strokeColor=none;fillColor=none;align=left;verticalAlign=top;spacingLeft=4;spacingRight=4;overflow=hidden;rotatable=0;points=[[0,0.5],[1,0.5]];portConstraint=eastwest;whiteSpace=wrap;html=1;" vertex="1" parent="FPbXuBb9ZGc2-HrZ0QQq-12">
          <mxGeometry y="26" width="236" height="26" as="geometry" />
        </mxCell>
        <mxCell id="FPbXuBb9ZGc2-HrZ0QQq-13" value="+ state: Selection [coupled, decoupled]" style="text;strokeColor=none;fillColor=none;align=left;verticalAlign=top;spacingLeft=4;spacingRight=4;overflow=hidden;rotatable=0;points=[[0,0.5],[1,0.5]];portConstraint=eastwest;whiteSpace=wrap;html=1;" vertex="1" parent="FPbXuBb9ZGc2-HrZ0QQq-12">
          <mxGeometry y="52" width="236" height="26" as="geometry" />
        </mxCell>
        <mxCell id="FPbXuBb9ZGc2-HrZ0QQq-21" value="+ timeDelay: float {the delay before applying the next command}" style="text;strokeColor=none;fillColor=none;align=left;verticalAlign=top;spacingLeft=4;spacingRight=4;overflow=hidden;rotatable=0;points=[[0,0.5],[1,0.5]];portConstraint=eastwest;whiteSpace=wrap;html=1;" vertex="1" parent="FPbXuBb9ZGc2-HrZ0QQq-12">
          <mxGeometry y="78" width="236" height="41" as="geometry" />
        </mxCell>
        <mxCell id="FPbXuBb9ZGc2-HrZ0QQq-35" value="+ toFollowPath: point[]" style="text;strokeColor=none;fillColor=none;align=left;verticalAlign=top;spacingLeft=4;spacingRight=4;overflow=hidden;rotatable=0;points=[[0,0.5],[1,0.5]];portConstraint=eastwest;whiteSpace=wrap;html=1;" vertex="1" parent="FPbXuBb9ZGc2-HrZ0QQq-12">
          <mxGeometry y="119" width="236" height="27" as="geometry" />
        </mxCell>
        <mxCell id="FPbXuBb9ZGc2-HrZ0QQq-133" value="+ minDistance: Float {The minimum allowed distance for the front sensor}&amp;nbsp;" style="text;strokeColor=none;fillColor=none;align=left;verticalAlign=top;spacingLeft=4;spacingRight=4;overflow=hidden;rotatable=0;points=[[0,0.5],[1,0.5]];portConstraint=eastwest;whiteSpace=wrap;html=1;" vertex="1" parent="FPbXuBb9ZGc2-HrZ0QQq-12">
          <mxGeometry y="146" width="236" height="39" as="geometry" />
        </mxCell>
        <mxCell id="FPbXuBb9ZGc2-HrZ0QQq-14" value="" style="line;strokeWidth=1;fillColor=none;align=left;verticalAlign=middle;spacingTop=-1;spacingLeft=3;spacingRight=3;rotatable=0;labelPosition=right;points=[];portConstraint=eastwest;strokeColor=inherit;" vertex="1" parent="FPbXuBb9ZGc2-HrZ0QQq-12">
          <mxGeometry y="185" width="236" height="8" as="geometry" />
        </mxCell>
        <mxCell id="FPbXuBb9ZGc2-HrZ0QQq-42" value="+ accelerate(speed: Float): void {called by master}" style="text;strokeColor=none;fillColor=none;align=left;verticalAlign=top;spacingLeft=4;spacingRight=4;overflow=hidden;rotatable=0;points=[[0,0.5],[1,0.5]];portConstraint=eastwest;whiteSpace=wrap;html=1;" vertex="1" parent="FPbXuBb9ZGc2-HrZ0QQq-12">
          <mxGeometry y="193" width="236" height="44" as="geometry" />
        </mxCell>
        <mxCell id="FPbXuBb9ZGc2-HrZ0QQq-43" value="+ steer (degree: Float): void {called by master}" style="text;strokeColor=none;fillColor=none;align=left;verticalAlign=top;spacingLeft=4;spacingRight=4;overflow=hidden;rotatable=0;points=[[0,0.5],[1,0.5]];portConstraint=eastwest;whiteSpace=wrap;html=1;" vertex="1" parent="FPbXuBb9ZGc2-HrZ0QQq-12">
          <mxGeometry y="237" width="236" height="44" as="geometry" />
        </mxCell>
        <mxCell id="FPbXuBb9ZGc2-HrZ0QQq-44" value="+ break (pressure: Float): void {called by master}" style="text;strokeColor=none;fillColor=none;align=left;verticalAlign=top;spacingLeft=4;spacingRight=4;overflow=hidden;rotatable=0;points=[[0,0.5],[1,0.5]];portConstraint=eastwest;whiteSpace=wrap;html=1;" vertex="1" parent="FPbXuBb9ZGc2-HrZ0QQq-12">
          <mxGeometry y="281" width="236" height="44" as="geometry" />
        </mxCell>
        <mxCell id="FPbXuBb9ZGc2-HrZ0QQq-83" value="+ sensorBreak (pressure: Float): void {called by sensor}" style="text;strokeColor=none;fillColor=none;align=left;verticalAlign=top;spacingLeft=4;spacingRight=4;overflow=hidden;rotatable=0;points=[[0,0.5],[1,0.5]];portConstraint=eastwest;whiteSpace=wrap;html=1;" vertex="1" parent="FPbXuBb9ZGc2-HrZ0QQq-12">
          <mxGeometry y="325" width="236" height="44" as="geometry" />
        </mxCell>
        <mxCell id="FPbXuBb9ZGc2-HrZ0QQq-15" value="+ sendDecoupledSignal(): void {sent to master}" style="text;strokeColor=none;fillColor=none;align=left;verticalAlign=top;spacingLeft=4;spacingRight=4;overflow=hidden;rotatable=0;points=[[0,0.5],[1,0.5]];portConstraint=eastwest;whiteSpace=wrap;html=1;" vertex="1" parent="FPbXuBb9ZGc2-HrZ0QQq-12">
          <mxGeometry y="369" width="236" height="44" as="geometry" />
        </mxCell>
        <mxCell id="FPbXuBb9ZGc2-HrZ0QQq-40" value="&amp;nbsp;+ autoDrive(): void {follow a the path in the &#39;toFollowPath&#39; to reach the master}" style="text;strokeColor=none;fillColor=none;align=left;verticalAlign=top;spacingLeft=4;spacingRight=4;overflow=hidden;rotatable=0;points=[[0,0.5],[1,0.5]];portConstraint=eastwest;whiteSpace=wrap;html=1;" vertex="1" parent="FPbXuBb9ZGc2-HrZ0QQq-12">
          <mxGeometry y="413" width="236" height="44" as="geometry" />
        </mxCell>
        <mxCell id="FPbXuBb9ZGc2-HrZ0QQq-18" style="edgeStyle=orthogonalEdgeStyle;rounded=0;orthogonalLoop=1;jettySize=auto;html=1;exitX=1;exitY=0.5;exitDx=0;exitDy=0;" edge="1" parent="1" source="FPbXuBb9ZGc2-HrZ0QQq-6" target="FPbXuBb9ZGc2-HrZ0QQq-12">
          <mxGeometry relative="1" as="geometry" />
        </mxCell>
        <mxCell id="FPbXuBb9ZGc2-HrZ0QQq-26" value="Point" style="swimlane;fontStyle=1;align=center;verticalAlign=top;childLayout=stackLayout;horizontal=1;startSize=26;horizontalStack=0;resizeParent=1;resizeParentMax=0;resizeLast=0;collapsible=1;marginBottom=0;whiteSpace=wrap;html=1;" vertex="1" parent="1">
          <mxGeometry x="63" y="174" width="160" height="112" as="geometry" />
        </mxCell>
        <mxCell id="FPbXuBb9ZGc2-HrZ0QQq-31" value="+ longtitude: Float" style="text;strokeColor=none;fillColor=none;align=left;verticalAlign=top;spacingLeft=4;spacingRight=4;overflow=hidden;rotatable=0;points=[[0,0.5],[1,0.5]];portConstraint=eastwest;whiteSpace=wrap;html=1;" vertex="1" parent="FPbXuBb9ZGc2-HrZ0QQq-26">
          <mxGeometry y="26" width="160" height="26" as="geometry" />
        </mxCell>
        <mxCell id="FPbXuBb9ZGc2-HrZ0QQq-32" value="+ latitude: Float" style="text;strokeColor=none;fillColor=none;align=left;verticalAlign=top;spacingLeft=4;spacingRight=4;overflow=hidden;rotatable=0;points=[[0,0.5],[1,0.5]];portConstraint=eastwest;whiteSpace=wrap;html=1;" vertex="1" parent="FPbXuBb9ZGc2-HrZ0QQq-26">
          <mxGeometry y="52" width="160" height="26" as="geometry" />
        </mxCell>
        <mxCell id="FPbXuBb9ZGc2-HrZ0QQq-28" value="" style="line;strokeWidth=1;fillColor=none;align=left;verticalAlign=middle;spacingTop=-1;spacingLeft=3;spacingRight=3;rotatable=0;labelPosition=right;points=[];portConstraint=eastwest;strokeColor=inherit;" vertex="1" parent="FPbXuBb9ZGc2-HrZ0QQq-26">
          <mxGeometry y="78" width="160" height="8" as="geometry" />
        </mxCell>
        <mxCell id="FPbXuBb9ZGc2-HrZ0QQq-29" value="+" style="text;strokeColor=none;fillColor=none;align=left;verticalAlign=top;spacingLeft=4;spacingRight=4;overflow=hidden;rotatable=0;points=[[0,0.5],[1,0.5]];portConstraint=eastwest;whiteSpace=wrap;html=1;" vertex="1" parent="FPbXuBb9ZGc2-HrZ0QQq-26">
          <mxGeometry y="86" width="160" height="26" as="geometry" />
        </mxCell>
        <mxCell id="FPbXuBb9ZGc2-HrZ0QQq-45" value="MasterVehicle" style="shape=umlLifeline;perimeter=lifelinePerimeter;whiteSpace=wrap;html=1;container=1;dropTarget=0;collapsible=0;recursiveResize=0;outlineConnect=0;portConstraint=eastwest;newEdgeStyle={&quot;curved&quot;:0,&quot;rounded&quot;:0};" vertex="1" parent="1">
          <mxGeometry x="1044" y="162" width="100" height="300" as="geometry" />
        </mxCell>
        <mxCell id="HDunjQT9ZqvCOJkdYQjt-14" value="" style="html=1;points=[[0,0,0,0,5],[0,1,0,0,-5],[1,0,0,0,5],[1,1,0,0,-5]];perimeter=orthogonalPerimeter;outlineConnect=0;targetShapes=umlLifeline;portConstraint=eastwest;newEdgeStyle={&quot;curved&quot;:0,&quot;rounded&quot;:0};" vertex="1" parent="FPbXuBb9ZGc2-HrZ0QQq-45">
          <mxGeometry x="45" y="65.75" width="10" height="219.25" as="geometry" />
        </mxCell>
        <mxCell id="FPbXuBb9ZGc2-HrZ0QQq-46" value="Ideal Coupled Proccess" style="text;align=center;fontStyle=1;verticalAlign=middle;spacingLeft=3;spacingRight=3;strokeColor=none;rotatable=0;points=[[0,0.5],[1,0.5]];portConstraint=eastwest;html=1;fontSize=20;" vertex="1" parent="1">
          <mxGeometry x="1087" y="85" width="239" height="26" as="geometry" />
        </mxCell>
        <mxCell id="FPbXuBb9ZGc2-HrZ0QQq-47" value="SlaveVehicle" style="shape=umlLifeline;perimeter=lifelinePerimeter;whiteSpace=wrap;html=1;container=1;dropTarget=0;collapsible=0;recursiveResize=0;outlineConnect=0;portConstraint=eastwest;newEdgeStyle={&quot;curved&quot;:0,&quot;rounded&quot;:0};" vertex="1" parent="1">
          <mxGeometry x="1267" y="160" width="100" height="295" as="geometry" />
        </mxCell>
        <mxCell id="HDunjQT9ZqvCOJkdYQjt-17" value="" style="html=1;points=[[0,0,0,0,5],[0,1,0,0,-5],[1,0,0,0,5],[1,1,0,0,-5]];perimeter=orthogonalPerimeter;outlineConnect=0;targetShapes=umlLifeline;portConstraint=eastwest;newEdgeStyle={&quot;curved&quot;:0,&quot;rounded&quot;:0};" vertex="1" parent="FPbXuBb9ZGc2-HrZ0QQq-47">
          <mxGeometry x="45" y="69" width="10" height="218" as="geometry" />
        </mxCell>
        <mxCell id="HDunjQT9ZqvCOJkdYQjt-18" value="" style="html=1;points=[[0,0,0,0,5],[0,1,0,0,-5],[1,0,0,0,5],[1,1,0,0,-5]];perimeter=orthogonalPerimeter;outlineConnect=0;targetShapes=umlLifeline;portConstraint=eastwest;newEdgeStyle={&quot;curved&quot;:0,&quot;rounded&quot;:0};" vertex="1" parent="FPbXuBb9ZGc2-HrZ0QQq-47">
          <mxGeometry x="49" y="88" width="15" height="44" as="geometry" />
        </mxCell>
        <mxCell id="HDunjQT9ZqvCOJkdYQjt-22" style="edgeStyle=orthogonalEdgeStyle;rounded=0;orthogonalLoop=1;jettySize=auto;html=1;curved=0;exitX=1;exitY=0;exitDx=0;exitDy=5;exitPerimeter=0;" edge="1" parent="FPbXuBb9ZGc2-HrZ0QQq-47" source="HDunjQT9ZqvCOJkdYQjt-18" target="HDunjQT9ZqvCOJkdYQjt-18">
          <mxGeometry relative="1" as="geometry">
            <Array as="points">
              <mxPoint x="64" y="90" />
              <mxPoint x="84" y="90" />
              <mxPoint x="84" y="126" />
            </Array>
          </mxGeometry>
        </mxCell>
        <mxCell id="HDunjQT9ZqvCOJkdYQjt-23" value="Accelerating" style="edgeLabel;html=1;align=center;verticalAlign=middle;resizable=0;points=[];" connectable="0" vertex="1" parent="HDunjQT9ZqvCOJkdYQjt-22">
          <mxGeometry x="-0.2405" y="2" relative="1" as="geometry">
            <mxPoint x="11" y="7" as="offset" />
          </mxGeometry>
        </mxCell>
        <mxCell id="HDunjQT9ZqvCOJkdYQjt-24" value="" style="html=1;points=[[0,0,0,0,5],[0,1,0,0,-5],[1,0,0,0,5],[1,1,0,0,-5]];perimeter=orthogonalPerimeter;outlineConnect=0;targetShapes=umlLifeline;portConstraint=eastwest;newEdgeStyle={&quot;curved&quot;:0,&quot;rounded&quot;:0};" vertex="1" parent="FPbXuBb9ZGc2-HrZ0QQq-47">
          <mxGeometry x="49" y="167" width="15" height="44" as="geometry" />
        </mxCell>
        <mxCell id="HDunjQT9ZqvCOJkdYQjt-25" style="edgeStyle=orthogonalEdgeStyle;rounded=0;orthogonalLoop=1;jettySize=auto;html=1;curved=0;exitX=1;exitY=0;exitDx=0;exitDy=5;exitPerimeter=0;" edge="1" parent="FPbXuBb9ZGc2-HrZ0QQq-47" source="HDunjQT9ZqvCOJkdYQjt-24" target="HDunjQT9ZqvCOJkdYQjt-24">
          <mxGeometry relative="1" as="geometry">
            <Array as="points">
              <mxPoint x="64" y="169" />
              <mxPoint x="84" y="169" />
              <mxPoint x="84" y="205" />
            </Array>
          </mxGeometry>
        </mxCell>
        <mxCell id="HDunjQT9ZqvCOJkdYQjt-26" value="Steering" style="edgeLabel;html=1;align=center;verticalAlign=middle;resizable=0;points=[];" connectable="0" vertex="1" parent="HDunjQT9ZqvCOJkdYQjt-25">
          <mxGeometry x="-0.2405" y="2" relative="1" as="geometry">
            <mxPoint x="11" y="7" as="offset" />
          </mxGeometry>
        </mxCell>
        <mxCell id="HDunjQT9ZqvCOJkdYQjt-27" value="" style="html=1;points=[[0,0,0,0,5],[0,1,0,0,-5],[1,0,0,0,5],[1,1,0,0,-5]];perimeter=orthogonalPerimeter;outlineConnect=0;targetShapes=umlLifeline;portConstraint=eastwest;newEdgeStyle={&quot;curved&quot;:0,&quot;rounded&quot;:0};" vertex="1" parent="FPbXuBb9ZGc2-HrZ0QQq-47">
          <mxGeometry x="49" y="240" width="15" height="44" as="geometry" />
        </mxCell>
        <mxCell id="HDunjQT9ZqvCOJkdYQjt-28" style="edgeStyle=orthogonalEdgeStyle;rounded=0;orthogonalLoop=1;jettySize=auto;html=1;curved=0;exitX=1;exitY=0;exitDx=0;exitDy=5;exitPerimeter=0;" edge="1" parent="FPbXuBb9ZGc2-HrZ0QQq-47" source="HDunjQT9ZqvCOJkdYQjt-27" target="HDunjQT9ZqvCOJkdYQjt-27">
          <mxGeometry relative="1" as="geometry">
            <Array as="points">
              <mxPoint x="64" y="242" />
              <mxPoint x="84" y="242" />
              <mxPoint x="84" y="278" />
            </Array>
          </mxGeometry>
        </mxCell>
        <mxCell id="HDunjQT9ZqvCOJkdYQjt-29" value="Breaking" style="edgeLabel;html=1;align=center;verticalAlign=middle;resizable=0;points=[];" connectable="0" vertex="1" parent="HDunjQT9ZqvCOJkdYQjt-28">
          <mxGeometry x="-0.2405" y="2" relative="1" as="geometry">
            <mxPoint x="11" y="7" as="offset" />
          </mxGeometry>
        </mxCell>
        <mxCell id="FPbXuBb9ZGc2-HrZ0QQq-54" style="edgeStyle=orthogonalEdgeStyle;rounded=0;orthogonalLoop=1;jettySize=auto;html=1;" edge="1" parent="1" target="FPbXuBb9ZGc2-HrZ0QQq-47">
          <mxGeometry relative="1" as="geometry">
            <Array as="points">
              <mxPoint x="1213" y="312" />
              <mxPoint x="1213" y="312" />
            </Array>
            <mxPoint x="1101" y="312" as="sourcePoint" />
          </mxGeometry>
        </mxCell>
        <mxCell id="HDunjQT9ZqvCOJkdYQjt-6" value="2.Steer()" style="edgeLabel;html=1;align=center;verticalAlign=middle;resizable=0;points=[];" connectable="0" vertex="1" parent="FPbXuBb9ZGc2-HrZ0QQq-54">
          <mxGeometry x="0.0453" y="1" relative="1" as="geometry">
            <mxPoint x="-19" y="-9" as="offset" />
          </mxGeometry>
        </mxCell>
        <mxCell id="FPbXuBb9ZGc2-HrZ0QQq-59" value="MasterVehicle" style="shape=umlLifeline;perimeter=lifelinePerimeter;whiteSpace=wrap;html=1;container=1;dropTarget=0;collapsible=0;recursiveResize=0;outlineConnect=0;portConstraint=eastwest;newEdgeStyle={&quot;curved&quot;:0,&quot;rounded&quot;:0};" vertex="1" parent="1">
          <mxGeometry x="1062" y="652" width="100" height="261" as="geometry" />
        </mxCell>
        <mxCell id="FPbXuBb9ZGc2-HrZ0QQq-60" value="Check All Slaves Are Coupeled" style="text;align=center;fontStyle=1;verticalAlign=middle;spacingLeft=3;spacingRight=3;strokeColor=none;rotatable=0;points=[[0,0.5],[1,0.5]];portConstraint=eastwest;html=1;fontSize=20;" vertex="1" parent="1">
          <mxGeometry x="1039" y="607" width="339" height="26" as="geometry" />
        </mxCell>
        <mxCell id="FPbXuBb9ZGc2-HrZ0QQq-61" value="SlaveVehicle" style="shape=umlLifeline;perimeter=lifelinePerimeter;whiteSpace=wrap;html=1;container=1;dropTarget=0;collapsible=0;recursiveResize=0;outlineConnect=0;portConstraint=eastwest;newEdgeStyle={&quot;curved&quot;:0,&quot;rounded&quot;:0};" vertex="1" parent="1">
          <mxGeometry x="1276" y="650" width="100" height="261" as="geometry" />
        </mxCell>
        <mxCell id="FPbXuBb9ZGc2-HrZ0QQq-69" value="" style="line;strokeWidth=1;fillColor=none;align=left;verticalAlign=middle;spacingTop=-1;spacingLeft=3;spacingRight=3;rotatable=0;labelPosition=right;points=[];portConstraint=eastwest;strokeColor=inherit;" vertex="1" parent="1">
          <mxGeometry x="903" y="793.5" width="580" height="8" as="geometry" />
        </mxCell>
        <mxCell id="FPbXuBb9ZGc2-HrZ0QQq-73" value="pingSlaves()" style="shape=umlFrame;whiteSpace=wrap;html=1;pointerEvents=0;width=146;height=28;" vertex="1" parent="1">
          <mxGeometry x="904" y="718" width="579" height="194" as="geometry" />
        </mxCell>
        <mxCell id="FPbXuBb9ZGc2-HrZ0QQq-76" value="No Exception" style="text;align=center;fontStyle=1;verticalAlign=middle;spacingLeft=3;spacingRight=3;strokeColor=none;rotatable=0;points=[[0,0.5],[1,0.5]];portConstraint=eastwest;html=1;" vertex="1" parent="1">
          <mxGeometry x="912" y="754" width="96" height="26" as="geometry" />
        </mxCell>
        <mxCell id="FPbXuBb9ZGc2-HrZ0QQq-77" value="Exception Raised" style="text;align=center;fontStyle=1;verticalAlign=middle;spacingLeft=3;spacingRight=3;strokeColor=none;rotatable=0;points=[[0,0.5],[1,0.5]];portConstraint=eastwest;html=1;" vertex="1" parent="1">
          <mxGeometry x="912" y="815" width="112" height="26" as="geometry" />
        </mxCell>
        <mxCell id="FPbXuBb9ZGc2-HrZ0QQq-78" value="stopNotifcation()" style="html=1;whiteSpace=wrap;rounded=1;" vertex="1" parent="1">
          <mxGeometry x="1062" y="821" width="105" height="20" as="geometry" />
        </mxCell>
        <mxCell id="FPbXuBb9ZGc2-HrZ0QQq-84" value="MasterVehicle" style="shape=umlLifeline;perimeter=lifelinePerimeter;whiteSpace=wrap;html=1;container=1;dropTarget=0;collapsible=0;recursiveResize=0;outlineConnect=0;portConstraint=eastwest;newEdgeStyle={&quot;curved&quot;:0,&quot;rounded&quot;:0};" vertex="1" parent="1">
          <mxGeometry x="1690" y="160" width="100" height="300" as="geometry" />
        </mxCell>
        <mxCell id="FPbXuBb9ZGc2-HrZ0QQq-85" value="Decoupled Proccess" style="text;align=center;fontStyle=1;verticalAlign=middle;spacingLeft=3;spacingRight=3;strokeColor=none;rotatable=0;points=[[0,0.5],[1,0.5]];portConstraint=eastwest;html=1;fontSize=20;" vertex="1" parent="1">
          <mxGeometry x="1856" y="92" width="239" height="26" as="geometry" />
        </mxCell>
        <mxCell id="FPbXuBb9ZGc2-HrZ0QQq-86" value="SlaveVehicle" style="shape=umlLifeline;perimeter=lifelinePerimeter;whiteSpace=wrap;html=1;container=1;dropTarget=0;collapsible=0;recursiveResize=0;outlineConnect=0;portConstraint=eastwest;newEdgeStyle={&quot;curved&quot;:0,&quot;rounded&quot;:0};" vertex="1" parent="1">
          <mxGeometry x="1930" y="160" width="100" height="295" as="geometry" />
        </mxCell>
        <mxCell id="FPbXuBb9ZGc2-HrZ0QQq-97" value="sensorBreak()" style="html=1;whiteSpace=wrap;rounded=1;" vertex="1" parent="1">
          <mxGeometry x="1930" y="223.5" width="102" height="20" as="geometry" />
        </mxCell>
        <mxCell id="FPbXuBb9ZGc2-HrZ0QQq-101" value="showStopSignal()" style="html=1;whiteSpace=wrap;rounded=1;" vertex="1" parent="1">
          <mxGeometry x="1688" y="311.5" width="102" height="20" as="geometry" />
        </mxCell>
        <mxCell id="FPbXuBb9ZGc2-HrZ0QQq-104" style="edgeStyle=orthogonalEdgeStyle;rounded=0;orthogonalLoop=1;jettySize=auto;html=1;exitX=1;exitY=0.5;exitDx=0;exitDy=0;" edge="1" parent="1" source="FPbXuBb9ZGc2-HrZ0QQq-102" target="jdqn0smxBB6up9CHiJCb-56">
          <mxGeometry relative="1" as="geometry">
            <Array as="points">
              <mxPoint x="2185" y="348" />
              <mxPoint x="2185" y="348" />
            </Array>
            <mxPoint x="2163" y="348" as="targetPoint" />
          </mxGeometry>
        </mxCell>
        <mxCell id="FPbXuBb9ZGc2-HrZ0QQq-102" value="GetMasterPath()" style="html=1;whiteSpace=wrap;rounded=1;" vertex="1" parent="1">
          <mxGeometry x="1912" y="338" width="136" height="20" as="geometry" />
        </mxCell>
        <mxCell id="FPbXuBb9ZGc2-HrZ0QQq-103" value="Server" style="shape=umlLifeline;perimeter=lifelinePerimeter;whiteSpace=wrap;html=1;container=1;dropTarget=0;collapsible=0;recursiveResize=0;outlineConnect=0;portConstraint=eastwest;newEdgeStyle={&quot;curved&quot;:0,&quot;rounded&quot;:0};" vertex="1" parent="1">
          <mxGeometry x="2151" y="162" width="100" height="295" as="geometry" />
        </mxCell>
        <mxCell id="jdqn0smxBB6up9CHiJCb-56" value="" style="html=1;points=[[0,0,0,0,5],[0,1,0,0,-5],[1,0,0,0,5],[1,1,0,0,-5]];perimeter=orthogonalPerimeter;outlineConnect=0;targetShapes=umlLifeline;portConstraint=eastwest;newEdgeStyle={&quot;curved&quot;:0,&quot;rounded&quot;:0};fillColor=#FFFFFF;" vertex="1" parent="FPbXuBb9ZGc2-HrZ0QQq-103">
          <mxGeometry x="45" y="186" width="10" height="37" as="geometry" />
        </mxCell>
        <mxCell id="FPbXuBb9ZGc2-HrZ0QQq-105" value="autoDrive()" style="html=1;whiteSpace=wrap;rounded=1;" vertex="1" parent="1">
          <mxGeometry x="1915" y="411" width="136" height="20" as="geometry" />
        </mxCell>
        <mxCell id="FPbXuBb9ZGc2-HrZ0QQq-106" value="MasterVehicle" style="shape=umlLifeline;perimeter=lifelinePerimeter;whiteSpace=wrap;html=1;container=1;dropTarget=0;collapsible=0;recursiveResize=0;outlineConnect=0;portConstraint=eastwest;newEdgeStyle={&quot;curved&quot;:0,&quot;rounded&quot;:0};" vertex="1" parent="1">
          <mxGeometry x="1813.5" y="630" width="100" height="406.5" as="geometry" />
        </mxCell>
        <mxCell id="FPbXuBb9ZGc2-HrZ0QQq-107" value="Re-coupling Proccess" style="text;align=center;fontStyle=1;verticalAlign=middle;spacingLeft=3;spacingRight=3;strokeColor=none;rotatable=0;points=[[0,0.5],[1,0.5]];portConstraint=eastwest;html=1;fontSize=20;" vertex="1" parent="1">
          <mxGeometry x="1866.5" y="576" width="239" height="26" as="geometry" />
        </mxCell>
        <mxCell id="FPbXuBb9ZGc2-HrZ0QQq-108" value="SlaveVehicle" style="shape=umlLifeline;perimeter=lifelinePerimeter;whiteSpace=wrap;html=1;container=1;dropTarget=0;collapsible=0;recursiveResize=0;outlineConnect=0;portConstraint=eastwest;newEdgeStyle={&quot;curved&quot;:0,&quot;rounded&quot;:0};" vertex="1" parent="1">
          <mxGeometry x="2053.5" y="630" width="100" height="407.5" as="geometry" />
        </mxCell>
        <mxCell id="FPbXuBb9ZGc2-HrZ0QQq-121" value="" style="html=1;points=[[0,0,0,0,5],[0,1,0,0,-5],[1,0,0,0,5],[1,1,0,0,-5]];perimeter=orthogonalPerimeter;outlineConnect=0;targetShapes=umlLifeline;portConstraint=eastwest;newEdgeStyle={&quot;curved&quot;:0,&quot;rounded&quot;:0};" vertex="1" parent="FPbXuBb9ZGc2-HrZ0QQq-108">
          <mxGeometry x="45" y="76" width="10" height="67" as="geometry" />
        </mxCell>
        <mxCell id="FPbXuBb9ZGc2-HrZ0QQq-130" value="" style="html=1;points=[[0,0,0,0,5],[0,1,0,0,-5],[1,0,0,0,5],[1,1,0,0,-5]];perimeter=orthogonalPerimeter;outlineConnect=0;targetShapes=umlLifeline;portConstraint=eastwest;newEdgeStyle={&quot;curved&quot;:0,&quot;rounded&quot;:0};" vertex="1" parent="FPbXuBb9ZGc2-HrZ0QQq-108">
          <mxGeometry x="45" y="180" width="10" height="80" as="geometry" />
        </mxCell>
        <mxCell id="FPbXuBb9ZGc2-HrZ0QQq-117" value="pingSlaves()" style="html=1;whiteSpace=wrap;rounded=1;" vertex="1" parent="1">
          <mxGeometry x="1812.5" y="701" width="102" height="20" as="geometry" />
        </mxCell>
        <mxCell id="FPbXuBb9ZGc2-HrZ0QQq-122" value="dispatch" style="html=1;verticalAlign=bottom;endArrow=block;curved=0;rounded=0;entryX=0;entryY=0;entryDx=0;entryDy=5;exitX=1;exitY=0.5;exitDx=0;exitDy=0;" edge="1" parent="1" source="FPbXuBb9ZGc2-HrZ0QQq-117" target="FPbXuBb9ZGc2-HrZ0QQq-121">
          <mxGeometry relative="1" as="geometry">
            <mxPoint x="1957.5" y="835" as="sourcePoint" />
          </mxGeometry>
        </mxCell>
        <mxCell id="FPbXuBb9ZGc2-HrZ0QQq-123" value="return" style="html=1;verticalAlign=bottom;endArrow=open;dashed=1;endSize=8;curved=0;rounded=0;exitX=0;exitY=1;exitDx=0;exitDy=-5;" edge="1" parent="1" source="FPbXuBb9ZGc2-HrZ0QQq-121" target="FPbXuBb9ZGc2-HrZ0QQq-106">
          <mxGeometry relative="1" as="geometry">
            <mxPoint x="1957.5" y="905" as="targetPoint" />
          </mxGeometry>
        </mxCell>
        <mxCell id="FPbXuBb9ZGc2-HrZ0QQq-124" value="coupleSlave()" style="html=1;whiteSpace=wrap;rounded=1;" vertex="1" parent="1">
          <mxGeometry x="1812.5" y="804" width="102" height="20" as="geometry" />
        </mxCell>
        <mxCell id="FPbXuBb9ZGc2-HrZ0QQq-131" value="dispatch" style="html=1;verticalAlign=bottom;endArrow=block;curved=0;rounded=0;entryX=0;entryY=0;entryDx=0;entryDy=5;exitX=1;exitY=0.5;exitDx=0;exitDy=0;" edge="1" parent="1" source="FPbXuBb9ZGc2-HrZ0QQq-124" target="FPbXuBb9ZGc2-HrZ0QQq-130">
          <mxGeometry relative="1" as="geometry">
            <mxPoint x="2028.5" y="819" as="sourcePoint" />
          </mxGeometry>
        </mxCell>
        <mxCell id="FPbXuBb9ZGc2-HrZ0QQq-132" value="return" style="html=1;verticalAlign=bottom;endArrow=open;dashed=1;endSize=8;curved=0;rounded=0;exitX=0;exitY=1;exitDx=0;exitDy=-5;" edge="1" parent="1" source="FPbXuBb9ZGc2-HrZ0QQq-130" target="FPbXuBb9ZGc2-HrZ0QQq-106">
          <mxGeometry relative="1" as="geometry">
            <mxPoint x="2028.5" y="889" as="targetPoint" />
          </mxGeometry>
        </mxCell>
        <mxCell id="FPbXuBb9ZGc2-HrZ0QQq-135" value="Server" style="swimlane;fontStyle=1;align=center;verticalAlign=top;childLayout=stackLayout;horizontal=1;startSize=26;horizontalStack=0;resizeParent=1;resizeParentMax=0;resizeLast=0;collapsible=1;marginBottom=0;whiteSpace=wrap;html=1;" vertex="1" parent="1">
          <mxGeometry x="335" y="191" width="296" height="158" as="geometry" />
        </mxCell>
        <mxCell id="FPbXuBb9ZGc2-HrZ0QQq-136" value="+ pointsHistory: Point[]" style="text;strokeColor=none;fillColor=none;align=left;verticalAlign=top;spacingLeft=4;spacingRight=4;overflow=hidden;rotatable=0;points=[[0,0.5],[1,0.5]];portConstraint=eastwest;whiteSpace=wrap;html=1;" vertex="1" parent="FPbXuBb9ZGc2-HrZ0QQq-135">
          <mxGeometry y="26" width="296" height="26" as="geometry" />
        </mxCell>
        <mxCell id="FPbXuBb9ZGc2-HrZ0QQq-138" value="" style="line;strokeWidth=1;fillColor=none;align=left;verticalAlign=middle;spacingTop=-1;spacingLeft=3;spacingRight=3;rotatable=0;labelPosition=right;points=[];portConstraint=eastwest;strokeColor=inherit;" vertex="1" parent="FPbXuBb9ZGc2-HrZ0QQq-135">
          <mxGeometry y="52" width="296" height="8" as="geometry" />
        </mxCell>
        <mxCell id="FPbXuBb9ZGc2-HrZ0QQq-139" value="+ addNewLocation(point: Point): void {push the location from the point paremter to the pointsHistory attribute}" style="text;strokeColor=none;fillColor=none;align=left;verticalAlign=top;spacingLeft=4;spacingRight=4;overflow=hidden;rotatable=0;points=[[0,0.5],[1,0.5]];portConstraint=eastwest;whiteSpace=wrap;html=1;" vertex="1" parent="FPbXuBb9ZGc2-HrZ0QQq-135">
          <mxGeometry y="60" width="296" height="57" as="geometry" />
        </mxCell>
        <mxCell id="SLA6O7EeEmOgQ9OaSCsO-5" value="+ getMasterPath(): Point[] {return the entire master path}" style="text;strokeColor=none;fillColor=none;align=left;verticalAlign=top;spacingLeft=4;spacingRight=4;overflow=hidden;rotatable=0;points=[[0,0.5],[1,0.5]];portConstraint=eastwest;whiteSpace=wrap;html=1;" vertex="1" parent="FPbXuBb9ZGc2-HrZ0QQq-135">
          <mxGeometry y="117" width="296" height="41" as="geometry" />
        </mxCell>
        <mxCell id="FPbXuBb9ZGc2-HrZ0QQq-140" style="edgeStyle=orthogonalEdgeStyle;rounded=0;orthogonalLoop=1;jettySize=auto;html=1;exitX=0;exitY=0.5;exitDx=0;exitDy=0;" edge="1" parent="1" source="FPbXuBb9ZGc2-HrZ0QQq-136" target="FPbXuBb9ZGc2-HrZ0QQq-26">
          <mxGeometry relative="1" as="geometry" />
        </mxCell>
        <mxCell id="FPbXuBb9ZGc2-HrZ0QQq-142" style="edgeStyle=orthogonalEdgeStyle;rounded=0;orthogonalLoop=1;jettySize=auto;html=1;exitX=0;exitY=0.5;exitDx=0;exitDy=0;" edge="1" parent="1" source="FPbXuBb9ZGc2-HrZ0QQq-141" target="FPbXuBb9ZGc2-HrZ0QQq-135">
          <mxGeometry relative="1" as="geometry">
            <Array as="points">
              <mxPoint x="103" y="463" />
              <mxPoint x="103" y="384" />
              <mxPoint x="483" y="384" />
            </Array>
          </mxGeometry>
        </mxCell>
        <mxCell id="FPbXuBb9ZGc2-HrZ0QQq-144" value="MasterVehicle" style="shape=umlLifeline;perimeter=lifelinePerimeter;whiteSpace=wrap;html=1;container=1;dropTarget=0;collapsible=0;recursiveResize=0;outlineConnect=0;portConstraint=eastwest;newEdgeStyle={&quot;curved&quot;:0,&quot;rounded&quot;:0};" vertex="1" parent="1">
          <mxGeometry x="2726" y="169" width="100" height="300" as="geometry" />
        </mxCell>
        <mxCell id="FPbXuBb9ZGc2-HrZ0QQq-145" value="Master Vehicle Location update" style="text;align=center;fontStyle=1;verticalAlign=middle;spacingLeft=3;spacingRight=3;strokeColor=none;rotatable=0;points=[[0,0.5],[1,0.5]];portConstraint=eastwest;html=1;fontSize=20;" vertex="1" parent="1">
          <mxGeometry x="2743" y="92" width="297" height="26" as="geometry" />
        </mxCell>
        <mxCell id="FPbXuBb9ZGc2-HrZ0QQq-146" value="Server" style="shape=umlLifeline;perimeter=lifelinePerimeter;whiteSpace=wrap;html=1;container=1;dropTarget=0;collapsible=0;recursiveResize=0;outlineConnect=0;portConstraint=eastwest;newEdgeStyle={&quot;curved&quot;:0,&quot;rounded&quot;:0};" vertex="1" parent="1">
          <mxGeometry x="2940" y="167" width="100" height="295" as="geometry" />
        </mxCell>
        <mxCell id="FPbXuBb9ZGc2-HrZ0QQq-157" style="edgeStyle=orthogonalEdgeStyle;rounded=0;orthogonalLoop=1;jettySize=auto;html=1;exitX=1;exitY=0.5;exitDx=0;exitDy=0;" edge="1" parent="1" source="FPbXuBb9ZGc2-HrZ0QQq-156" target="FPbXuBb9ZGc2-HrZ0QQq-146">
          <mxGeometry relative="1" as="geometry">
            <Array as="points">
              <mxPoint x="2942" y="277" />
              <mxPoint x="2942" y="277" />
            </Array>
          </mxGeometry>
        </mxCell>
        <mxCell id="FPbXuBb9ZGc2-HrZ0QQq-156" value="{get current location}" style="html=1;whiteSpace=wrap;rounded=1;" vertex="1" parent="1">
          <mxGeometry x="2701" y="266" width="150" height="20" as="geometry" />
        </mxCell>
        <mxCell id="FPbXuBb9ZGc2-HrZ0QQq-158" value="updateLocation()" style="shape=umlFrame;whiteSpace=wrap;html=1;pointerEvents=0;width=112;height=28;" vertex="1" parent="1">
          <mxGeometry x="2640" y="222.5" width="431" height="193" as="geometry" />
        </mxCell>
        <mxCell id="FPbXuBb9ZGc2-HrZ0QQq-159" value="{update points history}" style="html=1;whiteSpace=wrap;rounded=1;" vertex="1" parent="1">
          <mxGeometry x="2886" y="309" width="150" height="20" as="geometry" />
        </mxCell>
        <mxCell id="usLuf1yd0n8D8zEF4iEt-1" value="Coupled" style="ellipse;whiteSpace=wrap;html=1;fontSize=38;fontStyle=0" vertex="1" parent="1">
          <mxGeometry x="716" y="1477" width="335" height="90" as="geometry" />
        </mxCell>
        <mxCell id="usLuf1yd0n8D8zEF4iEt-2" value="Decoupled" style="ellipse;whiteSpace=wrap;html=1;fontSize=38;fontStyle=0" vertex="1" parent="1">
          <mxGeometry x="690" y="2143" width="442" height="90" as="geometry" />
        </mxCell>
        <mxCell id="usLuf1yd0n8D8zEF4iEt-6" value="" style="endArrow=classic;html=1;rounded=0;exitX=1;exitY=0.5;exitDx=0;exitDy=0;entryX=1;entryY=0;entryDx=0;entryDy=0;edgeStyle=orthogonalEdgeStyle;curved=1;endSize=14;" edge="1" parent="1" source="usLuf1yd0n8D8zEF4iEt-1" target="usLuf1yd0n8D8zEF4iEt-24">
          <mxGeometry relative="1" as="geometry">
            <mxPoint x="226" y="1667" as="sourcePoint" />
            <mxPoint x="386" y="1667" as="targetPoint" />
            <Array as="points">
              <mxPoint x="1051" y="1616" />
              <mxPoint x="1637" y="1616" />
            </Array>
          </mxGeometry>
        </mxCell>
        <mxCell id="usLuf1yd0n8D8zEF4iEt-7" value="Connection lost (with server or master)" style="edgeLabel;resizable=0;html=1;align=center;verticalAlign=middle;fontSize=30;" connectable="0" vertex="1" parent="usLuf1yd0n8D8zEF4iEt-6">
          <mxGeometry relative="1" as="geometry">
            <mxPoint x="-29" y="-6" as="offset" />
          </mxGeometry>
        </mxCell>
        <mxCell id="usLuf1yd0n8D8zEF4iEt-23" value="Stop" style="ellipse;whiteSpace=wrap;html=1;fontSize=38;fontStyle=0" vertex="1" parent="1">
          <mxGeometry x="119" y="1734" width="442" height="90" as="geometry" />
        </mxCell>
        <mxCell id="usLuf1yd0n8D8zEF4iEt-24" value="Auto Drive" style="ellipse;whiteSpace=wrap;html=1;fontSize=38;fontStyle=0" vertex="1" parent="1">
          <mxGeometry x="1167" y="1871" width="550" height="90" as="geometry" />
        </mxCell>
        <mxCell id="usLuf1yd0n8D8zEF4iEt-28" value="" style="endArrow=classic;html=1;rounded=0;exitX=0;exitY=1;exitDx=0;exitDy=0;entryX=0.5;entryY=0;entryDx=0;entryDy=0;endSize=14;edgeStyle=orthogonalEdgeStyle;curved=1;" edge="1" parent="1" source="usLuf1yd0n8D8zEF4iEt-1" target="usLuf1yd0n8D8zEF4iEt-23">
          <mxGeometry relative="1" as="geometry">
            <mxPoint x="664" y="1559" as="sourcePoint" />
            <mxPoint x="985" y="1776" as="targetPoint" />
          </mxGeometry>
        </mxCell>
        <mxCell id="usLuf1yd0n8D8zEF4iEt-29" value="Object Ahead" style="edgeLabel;resizable=0;html=1;align=center;verticalAlign=middle;fontSize=30;" connectable="0" vertex="1" parent="usLuf1yd0n8D8zEF4iEt-28">
          <mxGeometry relative="1" as="geometry">
            <mxPoint x="-29" y="-6" as="offset" />
          </mxGeometry>
        </mxCell>
        <mxCell id="usLuf1yd0n8D8zEF4iEt-33" value="" style="endArrow=classic;html=1;rounded=0;exitX=1;exitY=0;exitDx=0;exitDy=0;edgeStyle=orthogonalEdgeStyle;curved=1;endSize=14;" edge="1" parent="1" source="usLuf1yd0n8D8zEF4iEt-2" target="usLuf1yd0n8D8zEF4iEt-24">
          <mxGeometry relative="1" as="geometry">
            <mxPoint x="650" y="1796" as="sourcePoint" />
            <mxPoint x="971" y="2013" as="targetPoint" />
            <Array as="points">
              <mxPoint x="1045" y="2156" />
              <mxPoint x="1045" y="1916" />
              <mxPoint x="1169" y="1916" />
              <mxPoint x="1169" y="1881" />
              <mxPoint x="1630" y="1881" />
            </Array>
          </mxGeometry>
        </mxCell>
        <mxCell id="usLuf1yd0n8D8zEF4iEt-34" value="Closed the distance" style="edgeLabel;resizable=0;html=1;align=center;verticalAlign=middle;fontSize=30;" connectable="0" vertex="1" parent="usLuf1yd0n8D8zEF4iEt-33">
          <mxGeometry relative="1" as="geometry">
            <mxPoint x="-29" y="-6" as="offset" />
          </mxGeometry>
        </mxCell>
        <mxCell id="usLuf1yd0n8D8zEF4iEt-35" value="" style="endArrow=classic;html=1;rounded=0;exitX=0.5;exitY=0;exitDx=0;exitDy=0;entryX=1;entryY=1;entryDx=0;entryDy=0;edgeStyle=orthogonalEdgeStyle;curved=1;endSize=14;" edge="1" parent="1" source="usLuf1yd0n8D8zEF4iEt-24" target="usLuf1yd0n8D8zEF4iEt-1">
          <mxGeometry relative="1" as="geometry">
            <mxPoint x="919" y="1576" as="sourcePoint" />
            <mxPoint x="1240" y="1793" as="targetPoint" />
            <Array as="points">
              <mxPoint x="1143" y="1871" />
              <mxPoint x="1143" y="1775" />
              <mxPoint x="1002" y="1775" />
            </Array>
          </mxGeometry>
        </mxCell>
        <mxCell id="usLuf1yd0n8D8zEF4iEt-36" value="Direct Connection with &lt;br&gt;Master Established" style="edgeLabel;resizable=0;html=1;align=center;verticalAlign=middle;fontSize=30;" connectable="0" vertex="1" parent="usLuf1yd0n8D8zEF4iEt-35">
          <mxGeometry relative="1" as="geometry">
            <mxPoint x="-29" y="-41" as="offset" />
          </mxGeometry>
        </mxCell>
        <mxCell id="usLuf1yd0n8D8zEF4iEt-37" value="" style="endArrow=classic;html=1;rounded=0;exitX=0.324;exitY=0.975;exitDx=0;exitDy=0;entryX=0.353;entryY=0.042;entryDx=0;entryDy=0;edgeStyle=orthogonalEdgeStyle;curved=1;entryPerimeter=0;exitPerimeter=0;targetPerimeterSpacing=0;endSize=14;" edge="1" parent="1" source="usLuf1yd0n8D8zEF4iEt-1" target="usLuf1yd0n8D8zEF4iEt-2">
          <mxGeometry relative="1" as="geometry">
            <mxPoint x="753" y="2540" as="sourcePoint" />
            <mxPoint x="639" y="2117" as="targetPoint" />
            <Array as="points">
              <mxPoint x="824" y="1711" />
              <mxPoint x="828" y="1711" />
              <mxPoint x="828" y="2036" />
              <mxPoint x="846" y="2036" />
            </Array>
          </mxGeometry>
        </mxCell>
        <mxCell id="usLuf1yd0n8D8zEF4iEt-38" value="Lost Direct Connection&lt;br&gt;With Master" style="edgeLabel;resizable=0;html=1;align=center;verticalAlign=middle;fontSize=30;" connectable="0" vertex="1" parent="usLuf1yd0n8D8zEF4iEt-37">
          <mxGeometry relative="1" as="geometry">
            <mxPoint x="-29" y="-6" as="offset" />
          </mxGeometry>
        </mxCell>
        <mxCell id="jdqn0smxBB6up9CHiJCb-1" value="Server" style="swimlane;fontStyle=1;align=center;verticalAlign=top;childLayout=stackLayout;horizontal=1;startSize=26;horizontalStack=0;resizeParent=1;resizeParentMax=0;resizeLast=0;collapsible=1;marginBottom=0;whiteSpace=wrap;html=1;strokeWidth=1;" vertex="1" parent="1">
          <mxGeometry x="2537" y="1207" width="336" height="391" as="geometry" />
        </mxCell>
        <mxCell id="jdqn0smxBB6up9CHiJCb-2" value="+ trips: [string{Trip Number}, Trip]" style="text;strokeColor=none;fillColor=none;align=left;verticalAlign=top;spacingLeft=4;spacingRight=4;overflow=hidden;rotatable=0;points=[[0,0.5],[1,0.5]];portConstraint=eastwest;whiteSpace=wrap;html=1;" vertex="1" parent="jdqn0smxBB6up9CHiJCb-1">
          <mxGeometry y="26" width="336" height="26" as="geometry" />
        </mxCell>
        <mxCell id="jdqn0smxBB6up9CHiJCb-3" value="" style="line;strokeWidth=1;fillColor=none;align=left;verticalAlign=middle;spacingTop=-1;spacingLeft=3;spacingRight=3;rotatable=0;labelPosition=right;points=[];portConstraint=eastwest;strokeColor=inherit;" vertex="1" parent="jdqn0smxBB6up9CHiJCb-1">
          <mxGeometry y="52" width="336" height="8" as="geometry" />
        </mxCell>
        <mxCell id="jdqn0smxBB6up9CHiJCb-4" value="+&amp;nbsp;createTrip(masterId: String): String {returns the ID of the new trip}" style="text;strokeColor=none;fillColor=none;align=left;verticalAlign=top;spacingLeft=4;spacingRight=4;overflow=hidden;rotatable=0;points=[[0,0.5],[1,0.5]];portConstraint=eastwest;whiteSpace=wrap;html=1;" vertex="1" parent="jdqn0smxBB6up9CHiJCb-1">
          <mxGeometry y="60" width="336" height="41" as="geometry" />
        </mxCell>
        <mxCell id="jdqn0smxBB6up9CHiJCb-5" value="+&amp;nbsp;linkSlaveToTrip&lt;span style=&quot;background-color: initial;&quot;&gt;(tripNumber: String, slaveId: String): void&amp;nbsp;&lt;/span&gt;" style="text;strokeColor=none;fillColor=none;align=left;verticalAlign=top;spacingLeft=4;spacingRight=4;overflow=hidden;rotatable=0;points=[[0,0.5],[1,0.5]];portConstraint=eastwest;whiteSpace=wrap;html=1;" vertex="1" parent="jdqn0smxBB6up9CHiJCb-1">
          <mxGeometry y="101" width="336" height="28" as="geometry" />
        </mxCell>
        <mxCell id="XZ4GKWzbMaa0q8jUKffn-1" value="+&amp;nbsp;startTrip(tripNumber: String): void {Set tripped as &#39;START&#39;}" style="text;strokeColor=none;fillColor=none;align=left;verticalAlign=top;spacingLeft=4;spacingRight=4;overflow=hidden;rotatable=0;points=[[0,0.5],[1,0.5]];portConstraint=eastwest;whiteSpace=wrap;html=1;" vertex="1" parent="jdqn0smxBB6up9CHiJCb-1">
          <mxGeometry y="129" width="336" height="26" as="geometry" />
        </mxCell>
        <mxCell id="jdqn0smxBB6up9CHiJCb-8" value="+ endTrip(tripNumber: String): void {Set tripped as &#39;END&#39;}" style="text;strokeColor=none;fillColor=none;align=left;verticalAlign=top;spacingLeft=4;spacingRight=4;overflow=hidden;rotatable=0;points=[[0,0.5],[1,0.5]];portConstraint=eastwest;whiteSpace=wrap;html=1;" vertex="1" parent="jdqn0smxBB6up9CHiJCb-1">
          <mxGeometry y="155" width="336" height="26" as="geometry" />
        </mxCell>
        <mxCell id="jdqn0smxBB6up9CHiJCb-6" value="+&amp;nbsp;updateMasterLocation&lt;span style=&quot;background-color: initial;&quot;&gt;(tripNumber String, masterId String, newLocation Point): void&lt;br&gt;&lt;/span&gt;" style="text;strokeColor=none;fillColor=none;align=left;verticalAlign=top;spacingLeft=4;spacingRight=4;overflow=hidden;rotatable=0;points=[[0,0.5],[1,0.5]];portConstraint=eastwest;whiteSpace=wrap;html=1;" vertex="1" parent="jdqn0smxBB6up9CHiJCb-1">
          <mxGeometry y="181" width="336" height="41" as="geometry" />
        </mxCell>
        <mxCell id="XZ4GKWzbMaa0q8jUKffn-2" value="&lt;span style=&quot;color: rgb(0, 0, 0); font-family: Helvetica; font-size: 12px; font-style: normal; font-variant-ligatures: normal; font-variant-caps: normal; font-weight: 400; letter-spacing: normal; orphans: 2; text-align: left; text-indent: 0px; text-transform: none; widows: 2; word-spacing: 0px; -webkit-text-stroke-width: 0px; background-color: rgb(251, 251, 251); text-decoration-thickness: initial; text-decoration-style: initial; text-decoration-color: initial; float: none; display: inline !important;&quot;&gt;+&amp;nbsp;updateSlaveLocation&lt;/span&gt;&lt;span style=&quot;border-color: var(--border-color); color: rgb(0, 0, 0); font-family: Helvetica; font-size: 12px; font-style: normal; font-variant-ligatures: normal; font-variant-caps: normal; font-weight: 400; letter-spacing: normal; orphans: 2; text-align: left; text-indent: 0px; text-transform: none; widows: 2; word-spacing: 0px; -webkit-text-stroke-width: 0px; background-color: initial; text-decoration-thickness: initial; text-decoration-style: initial; text-decoration-color: initial;&quot;&gt;(tripNumber String, slaveId String, newLocation Point): void&lt;/span&gt;&lt;br&gt;" style="text;strokeColor=none;fillColor=none;align=left;verticalAlign=top;spacingLeft=4;spacingRight=4;overflow=hidden;rotatable=0;points=[[0,0.5],[1,0.5]];portConstraint=eastwest;whiteSpace=wrap;html=1;" vertex="1" parent="jdqn0smxBB6up9CHiJCb-1">
          <mxGeometry y="222" width="336" height="41" as="geometry" />
        </mxCell>
        <mxCell id="jdqn0smxBB6up9CHiJCb-7" value="+ getSlaveToMasterLocation(tripNumber String, SlaveId String) Point[]&amp;nbsp;" style="text;strokeColor=none;fillColor=none;align=left;verticalAlign=top;spacingLeft=4;spacingRight=4;overflow=hidden;rotatable=0;points=[[0,0.5],[1,0.5]];portConstraint=eastwest;whiteSpace=wrap;html=1;" vertex="1" parent="jdqn0smxBB6up9CHiJCb-1">
          <mxGeometry y="263" width="336" height="41" as="geometry" />
        </mxCell>
        <mxCell id="XZ4GKWzbMaa0q8jUKffn-3" value="+&amp;nbsp;turnOnEmergencySignalForTrip(tripNumber String): void" style="text;strokeColor=none;fillColor=none;align=left;verticalAlign=top;spacingLeft=4;spacingRight=4;overflow=hidden;rotatable=0;points=[[0,0.5],[1,0.5]];portConstraint=eastwest;whiteSpace=wrap;html=1;" vertex="1" parent="jdqn0smxBB6up9CHiJCb-1">
          <mxGeometry y="304" width="336" height="29" as="geometry" />
        </mxCell>
        <mxCell id="XZ4GKWzbMaa0q8jUKffn-4" value="+&amp;nbsp;turnOffEmergencySignalForTrip(tripNumber String): void" style="text;strokeColor=none;fillColor=none;align=left;verticalAlign=top;spacingLeft=4;spacingRight=4;overflow=hidden;rotatable=0;points=[[0,0.5],[1,0.5]];portConstraint=eastwest;whiteSpace=wrap;html=1;" vertex="1" parent="jdqn0smxBB6up9CHiJCb-1">
          <mxGeometry y="333" width="336" height="29" as="geometry" />
        </mxCell>
        <mxCell id="XZ4GKWzbMaa0q8jUKffn-5" value="+&amp;nbsp;getEmergencySignalForTrip&lt;span style=&quot;background-color: initial;&quot;&gt;(tripNumber String): bool&lt;/span&gt;" style="text;strokeColor=none;fillColor=none;align=left;verticalAlign=top;spacingLeft=4;spacingRight=4;overflow=hidden;rotatable=0;points=[[0,0.5],[1,0.5]];portConstraint=eastwest;whiteSpace=wrap;html=1;" vertex="1" parent="jdqn0smxBB6up9CHiJCb-1">
          <mxGeometry y="362" width="336" height="29" as="geometry" />
        </mxCell>
        <mxCell id="jdqn0smxBB6up9CHiJCb-14" value="Trip" style="swimlane;fontStyle=1;align=center;verticalAlign=top;childLayout=stackLayout;horizontal=1;startSize=26;horizontalStack=0;resizeParent=1;resizeParentMax=0;resizeLast=0;collapsible=1;marginBottom=0;whiteSpace=wrap;html=1;" vertex="1" parent="1">
          <mxGeometry x="3030" y="1216" width="230" height="496" as="geometry" />
        </mxCell>
        <mxCell id="XZ4GKWzbMaa0q8jUKffn-6" value="&lt;span style=&quot;color: rgb(0, 0, 0); font-family: Helvetica; font-size: 12px; font-style: normal; font-variant-ligatures: normal; font-variant-caps: normal; font-weight: 400; letter-spacing: normal; orphans: 2; text-align: left; text-indent: 0px; text-transform: none; widows: 2; word-spacing: 0px; -webkit-text-stroke-width: 0px; background-color: rgb(251, 251, 251); text-decoration-thickness: initial; text-decoration-style: initial; text-decoration-color: initial; float: none; display: inline !important;&quot;&gt;+ state: [INIT, IN_PROGRESS, DONE]&lt;/span&gt;&lt;br&gt;" style="text;strokeColor=none;fillColor=none;align=left;verticalAlign=top;spacingLeft=4;spacingRight=4;overflow=hidden;rotatable=0;points=[[0,0.5],[1,0.5]];portConstraint=eastwest;whiteSpace=wrap;html=1;" vertex="1" parent="jdqn0smxBB6up9CHiJCb-14">
          <mxGeometry y="26" width="230" height="26" as="geometry" />
        </mxCell>
        <mxCell id="jdqn0smxBB6up9CHiJCb-22" value="+ number: String" style="text;strokeColor=none;fillColor=none;align=left;verticalAlign=top;spacingLeft=4;spacingRight=4;overflow=hidden;rotatable=0;points=[[0,0.5],[1,0.5]];portConstraint=eastwest;whiteSpace=wrap;html=1;" vertex="1" parent="jdqn0smxBB6up9CHiJCb-14">
          <mxGeometry y="52" width="230" height="26" as="geometry" />
        </mxCell>
        <mxCell id="jdqn0smxBB6up9CHiJCb-15" value="+ master: MasterInterface" style="text;strokeColor=none;fillColor=none;align=left;verticalAlign=top;spacingLeft=4;spacingRight=4;overflow=hidden;rotatable=0;points=[[0,0.5],[1,0.5]];portConstraint=eastwest;whiteSpace=wrap;html=1;" vertex="1" parent="jdqn0smxBB6up9CHiJCb-14">
          <mxGeometry y="78" width="230" height="26" as="geometry" />
        </mxCell>
        <mxCell id="jdqn0smxBB6up9CHiJCb-19" value="+ slaves: SlaveInterface[]" style="text;strokeColor=none;fillColor=none;align=left;verticalAlign=top;spacingLeft=4;spacingRight=4;overflow=hidden;rotatable=0;points=[[0,0.5],[1,0.5]];portConstraint=eastwest;whiteSpace=wrap;html=1;" vertex="1" parent="jdqn0smxBB6up9CHiJCb-14">
          <mxGeometry y="104" width="230" height="26" as="geometry" />
        </mxCell>
        <mxCell id="jdqn0smxBB6up9CHiJCb-21" value="+ masterLocationHistory: Point[]" style="text;strokeColor=none;fillColor=none;align=left;verticalAlign=top;spacingLeft=4;spacingRight=4;overflow=hidden;rotatable=0;points=[[0,0.5],[1,0.5]];portConstraint=eastwest;whiteSpace=wrap;html=1;" vertex="1" parent="jdqn0smxBB6up9CHiJCb-14">
          <mxGeometry y="130" width="230" height="28" as="geometry" />
        </mxCell>
        <mxCell id="XZ4GKWzbMaa0q8jUKffn-7" value="+&amp;nbsp;emergencySignalIsON: bool" style="text;strokeColor=none;fillColor=none;align=left;verticalAlign=top;spacingLeft=4;spacingRight=4;overflow=hidden;rotatable=0;points=[[0,0.5],[1,0.5]];portConstraint=eastwest;whiteSpace=wrap;html=1;" vertex="1" parent="jdqn0smxBB6up9CHiJCb-14">
          <mxGeometry y="158" width="230" height="28" as="geometry" />
        </mxCell>
        <mxCell id="jdqn0smxBB6up9CHiJCb-16" value="" style="line;strokeWidth=1;fillColor=none;align=left;verticalAlign=middle;spacingTop=-1;spacingLeft=3;spacingRight=3;rotatable=0;labelPosition=right;points=[];portConstraint=eastwest;strokeColor=inherit;" vertex="1" parent="jdqn0smxBB6up9CHiJCb-14">
          <mxGeometry y="186" width="230" height="8" as="geometry" />
        </mxCell>
        <mxCell id="jdqn0smxBB6up9CHiJCb-17" value="+&amp;nbsp;validateMasterId(masterId String): void" style="text;strokeColor=none;fillColor=none;align=left;verticalAlign=top;spacingLeft=4;spacingRight=4;overflow=hidden;rotatable=0;points=[[0,0.5],[1,0.5]];portConstraint=eastwest;whiteSpace=wrap;html=1;" vertex="1" parent="jdqn0smxBB6up9CHiJCb-14">
          <mxGeometry y="194" width="230" height="25" as="geometry" />
        </mxCell>
        <mxCell id="jdqn0smxBB6up9CHiJCb-23" value="+&amp;nbsp;validateSlaveId(slaveId String): void" style="text;strokeColor=none;fillColor=none;align=left;verticalAlign=top;spacingLeft=4;spacingRight=4;overflow=hidden;rotatable=0;points=[[0,0.5],[1,0.5]];portConstraint=eastwest;whiteSpace=wrap;html=1;" vertex="1" parent="jdqn0smxBB6up9CHiJCb-14">
          <mxGeometry y="219" width="230" height="28" as="geometry" />
        </mxCell>
        <mxCell id="jdqn0smxBB6up9CHiJCb-24" value="+&amp;nbsp;addSlave(slaveId String): void" style="text;strokeColor=none;fillColor=none;align=left;verticalAlign=top;spacingLeft=4;spacingRight=4;overflow=hidden;rotatable=0;points=[[0,0.5],[1,0.5]];portConstraint=eastwest;whiteSpace=wrap;html=1;" vertex="1" parent="jdqn0smxBB6up9CHiJCb-14">
          <mxGeometry y="247" width="230" height="28" as="geometry" />
        </mxCell>
        <mxCell id="jdqn0smxBB6up9CHiJCb-25" value="+&amp;nbsp;startTrip(): void" style="text;strokeColor=none;fillColor=none;align=left;verticalAlign=top;spacingLeft=4;spacingRight=4;overflow=hidden;rotatable=0;points=[[0,0.5],[1,0.5]];portConstraint=eastwest;whiteSpace=wrap;html=1;" vertex="1" parent="jdqn0smxBB6up9CHiJCb-14">
          <mxGeometry y="275" width="230" height="28" as="geometry" />
        </mxCell>
        <mxCell id="jdqn0smxBB6up9CHiJCb-26" value="+&amp;nbsp;endTrip(): void" style="text;strokeColor=none;fillColor=none;align=left;verticalAlign=top;spacingLeft=4;spacingRight=4;overflow=hidden;rotatable=0;points=[[0,0.5],[1,0.5]];portConstraint=eastwest;whiteSpace=wrap;html=1;" vertex="1" parent="jdqn0smxBB6up9CHiJCb-14">
          <mxGeometry y="303" width="230" height="30" as="geometry" />
        </mxCell>
        <mxCell id="jdqn0smxBB6up9CHiJCb-27" value="+&amp;nbsp;getSlaves(): SlaveInterface[]" style="text;strokeColor=none;fillColor=none;align=left;verticalAlign=top;spacingLeft=4;spacingRight=4;overflow=hidden;rotatable=0;points=[[0,0.5],[1,0.5]];portConstraint=eastwest;whiteSpace=wrap;html=1;" vertex="1" parent="jdqn0smxBB6up9CHiJCb-14">
          <mxGeometry y="333" width="230" height="30" as="geometry" />
        </mxCell>
        <mxCell id="XZ4GKWzbMaa0q8jUKffn-8" value="+&amp;nbsp;getSlaveToMasterPath(slaveId String): Point[]" style="text;strokeColor=none;fillColor=none;align=left;verticalAlign=top;spacingLeft=4;spacingRight=4;overflow=hidden;rotatable=0;points=[[0,0.5],[1,0.5]];portConstraint=eastwest;whiteSpace=wrap;html=1;" vertex="1" parent="jdqn0smxBB6up9CHiJCb-14">
          <mxGeometry y="363" width="230" height="43" as="geometry" />
        </mxCell>
        <mxCell id="XZ4GKWzbMaa0q8jUKffn-9" value="+&amp;nbsp;turnOnEmergencySignal(): void" style="text;strokeColor=none;fillColor=none;align=left;verticalAlign=top;spacingLeft=4;spacingRight=4;overflow=hidden;rotatable=0;points=[[0,0.5],[1,0.5]];portConstraint=eastwest;whiteSpace=wrap;html=1;" vertex="1" parent="jdqn0smxBB6up9CHiJCb-14">
          <mxGeometry y="406" width="230" height="30" as="geometry" />
        </mxCell>
        <mxCell id="XZ4GKWzbMaa0q8jUKffn-10" value="+&amp;nbsp;turnOffEmergencySignal(): void" style="text;strokeColor=none;fillColor=none;align=left;verticalAlign=top;spacingLeft=4;spacingRight=4;overflow=hidden;rotatable=0;points=[[0,0.5],[1,0.5]];portConstraint=eastwest;whiteSpace=wrap;html=1;" vertex="1" parent="jdqn0smxBB6up9CHiJCb-14">
          <mxGeometry y="436" width="230" height="30" as="geometry" />
        </mxCell>
        <mxCell id="XZ4GKWzbMaa0q8jUKffn-12" value="+&amp;nbsp;getEmergencySignal():bool" style="text;strokeColor=none;fillColor=none;align=left;verticalAlign=top;spacingLeft=4;spacingRight=4;overflow=hidden;rotatable=0;points=[[0,0.5],[1,0.5]];portConstraint=eastwest;whiteSpace=wrap;html=1;" vertex="1" parent="jdqn0smxBB6up9CHiJCb-14">
          <mxGeometry y="466" width="230" height="30" as="geometry" />
        </mxCell>
        <mxCell id="jdqn0smxBB6up9CHiJCb-28" style="edgeStyle=orthogonalEdgeStyle;rounded=0;orthogonalLoop=1;jettySize=auto;html=1;exitX=1;exitY=0.5;exitDx=0;exitDy=0;" edge="1" parent="1" source="jdqn0smxBB6up9CHiJCb-5" target="jdqn0smxBB6up9CHiJCb-14">
          <mxGeometry relative="1" as="geometry" />
        </mxCell>
        <mxCell id="pMuibLVsuA4GQpmYCpPP-30" style="edgeStyle=orthogonalEdgeStyle;rounded=0;orthogonalLoop=1;jettySize=auto;html=1;exitX=0.5;exitY=0;exitDx=0;exitDy=0;" edge="1" parent="1" source="jdqn0smxBB6up9CHiJCb-33" target="jdqn0smxBB6up9CHiJCb-1">
          <mxGeometry relative="1" as="geometry" />
        </mxCell>
        <mxCell id="jdqn0smxBB6up9CHiJCb-33" value="Point" style="swimlane;fontStyle=1;childLayout=stackLayout;horizontal=1;startSize=26;fillColor=none;horizontalStack=0;resizeParent=1;resizeParentMax=0;resizeLast=0;collapsible=1;marginBottom=0;whiteSpace=wrap;html=1;" vertex="1" parent="1">
          <mxGeometry x="2543" y="1706" width="140" height="78" as="geometry" />
        </mxCell>
        <mxCell id="jdqn0smxBB6up9CHiJCb-34" value="+ longitude: Float" style="text;strokeColor=none;fillColor=none;align=left;verticalAlign=top;spacingLeft=4;spacingRight=4;overflow=hidden;rotatable=0;points=[[0,0.5],[1,0.5]];portConstraint=eastwest;whiteSpace=wrap;html=1;" vertex="1" parent="jdqn0smxBB6up9CHiJCb-33">
          <mxGeometry y="26" width="140" height="26" as="geometry" />
        </mxCell>
        <mxCell id="jdqn0smxBB6up9CHiJCb-35" value="+ latitude: Float" style="text;strokeColor=none;fillColor=none;align=left;verticalAlign=top;spacingLeft=4;spacingRight=4;overflow=hidden;rotatable=0;points=[[0,0.5],[1,0.5]];portConstraint=eastwest;whiteSpace=wrap;html=1;" vertex="1" parent="jdqn0smxBB6up9CHiJCb-33">
          <mxGeometry y="52" width="140" height="26" as="geometry" />
        </mxCell>
        <mxCell id="jdqn0smxBB6up9CHiJCb-37" style="edgeStyle=orthogonalEdgeStyle;rounded=0;orthogonalLoop=1;jettySize=auto;html=1;startArrow=classic;startFill=1;endArrow=none;endFill=0;" edge="1" parent="1" source="jdqn0smxBB6up9CHiJCb-14" target="jdqn0smxBB6up9CHiJCb-33">
          <mxGeometry relative="1" as="geometry">
            <mxPoint x="2944" y="1593" as="sourcePoint" />
            <Array as="points">
              <mxPoint x="2660" y="1664" />
            </Array>
          </mxGeometry>
        </mxCell>
        <mxCell id="jdqn0smxBB6up9CHiJCb-38" value="Server" style="html=1;whiteSpace=wrap;fontSize=42;" vertex="1" parent="1">
          <mxGeometry x="3573" y="1254" width="260" height="84" as="geometry" />
        </mxCell>
        <mxCell id="jdqn0smxBB6up9CHiJCb-41" style="rounded=0;orthogonalLoop=1;jettySize=auto;html=1;exitX=0.25;exitY=0;exitDx=0;exitDy=0;endArrow=block;endFill=1;" edge="1" parent="1" source="jdqn0smxBB6up9CHiJCb-39" target="jdqn0smxBB6up9CHiJCb-38">
          <mxGeometry relative="1" as="geometry" />
        </mxCell>
        <mxCell id="jdqn0smxBB6up9CHiJCb-42" value="HTTP Connection" style="edgeLabel;html=1;align=center;verticalAlign=middle;resizable=0;points=[];fontStyle=1;fontSize=17;" connectable="0" vertex="1" parent="jdqn0smxBB6up9CHiJCb-41">
          <mxGeometry x="0.1226" y="2" relative="1" as="geometry">
            <mxPoint as="offset" />
          </mxGeometry>
        </mxCell>
        <mxCell id="jdqn0smxBB6up9CHiJCb-48" style="edgeStyle=orthogonalEdgeStyle;rounded=0;orthogonalLoop=1;jettySize=auto;html=1;exitX=1;exitY=0.5;exitDx=0;exitDy=0;entryX=0;entryY=0.5;entryDx=0;entryDy=0;endArrow=none;endFill=0;startArrow=classic;startFill=1;" edge="1" parent="1" source="jdqn0smxBB6up9CHiJCb-39" target="jdqn0smxBB6up9CHiJCb-40">
          <mxGeometry relative="1" as="geometry" />
        </mxCell>
        <mxCell id="jdqn0smxBB6up9CHiJCb-49" value="Web Socket" style="edgeLabel;html=1;align=center;verticalAlign=middle;resizable=0;points=[];fontSize=17;fontStyle=1" connectable="0" vertex="1" parent="jdqn0smxBB6up9CHiJCb-48">
          <mxGeometry x="0.1341" y="-3" relative="1" as="geometry">
            <mxPoint x="-12" y="-3" as="offset" />
          </mxGeometry>
        </mxCell>
        <mxCell id="jdqn0smxBB6up9CHiJCb-39" value="Master Vehicle" style="html=1;whiteSpace=wrap;fontSize=42;" vertex="1" parent="1">
          <mxGeometry x="3394" y="1521" width="260" height="119.5" as="geometry" />
        </mxCell>
        <mxCell id="jdqn0smxBB6up9CHiJCb-44" style="rounded=0;orthogonalLoop=1;jettySize=auto;html=1;exitX=0.25;exitY=0;exitDx=0;exitDy=0;endArrow=classic;endFill=1;entryX=0.75;entryY=1;entryDx=0;entryDy=0;" edge="1" parent="1" source="jdqn0smxBB6up9CHiJCb-40" target="jdqn0smxBB6up9CHiJCb-38">
          <mxGeometry relative="1" as="geometry">
            <mxPoint x="3469" y="1531" as="sourcePoint" />
            <mxPoint x="3668" y="1348" as="targetPoint" />
          </mxGeometry>
        </mxCell>
        <mxCell id="jdqn0smxBB6up9CHiJCb-45" value="HTTP Connection" style="edgeLabel;html=1;align=center;verticalAlign=middle;resizable=0;points=[];fontStyle=1;fontSize=17;" connectable="0" vertex="1" parent="jdqn0smxBB6up9CHiJCb-44">
          <mxGeometry x="0.1226" y="2" relative="1" as="geometry">
            <mxPoint as="offset" />
          </mxGeometry>
        </mxCell>
        <mxCell id="jdqn0smxBB6up9CHiJCb-51" value="Slave Vehicle" style="html=1;whiteSpace=wrap;fontSize=42;" vertex="1" parent="1">
          <mxGeometry x="3848" y="1541" width="260" height="119.5" as="geometry" />
        </mxCell>
        <mxCell id="jdqn0smxBB6up9CHiJCb-50" value="Slave Vehicle" style="html=1;whiteSpace=wrap;fontSize=42;" vertex="1" parent="1">
          <mxGeometry x="3838" y="1531" width="260" height="119.5" as="geometry" />
        </mxCell>
        <mxCell id="jdqn0smxBB6up9CHiJCb-40" value="Slave Vehicle" style="html=1;whiteSpace=wrap;fontSize=42;" vertex="1" parent="1">
          <mxGeometry x="3828" y="1521" width="260" height="119.5" as="geometry" />
        </mxCell>
        <mxCell id="jdqn0smxBB6up9CHiJCb-57" style="edgeStyle=orthogonalEdgeStyle;rounded=0;orthogonalLoop=1;jettySize=auto;html=1;curved=0;dashed=1;" edge="1" parent="1" source="jdqn0smxBB6up9CHiJCb-56" target="FPbXuBb9ZGc2-HrZ0QQq-86">
          <mxGeometry relative="1" as="geometry">
            <Array as="points">
              <mxPoint x="2091" y="385" />
              <mxPoint x="2091" y="385" />
            </Array>
          </mxGeometry>
        </mxCell>
        <mxCell id="jdqn0smxBB6up9CHiJCb-58" value="hideStopSign()" style="html=1;whiteSpace=wrap;rounded=1;" vertex="1" parent="1">
          <mxGeometry x="1812.5" y="904" width="102" height="20" as="geometry" />
        </mxCell>
        <mxCell id="jdqn0smxBB6up9CHiJCb-65" value="Slave State Machine" style="text;align=center;fontStyle=1;verticalAlign=middle;spacingLeft=3;spacingRight=3;strokeColor=none;rotatable=0;points=[[0,0.5],[1,0.5]];portConstraint=eastwest;html=1;fontSize=38;" vertex="1" parent="1">
          <mxGeometry x="577" y="1369" width="618" height="48" as="geometry" />
        </mxCell>
        <mxCell id="jdqn0smxBB6up9CHiJCb-66" value="MasterVehicle" style="shape=umlLifeline;perimeter=lifelinePerimeter;whiteSpace=wrap;html=1;container=1;dropTarget=0;collapsible=0;recursiveResize=0;outlineConnect=0;portConstraint=eastwest;newEdgeStyle={&quot;curved&quot;:0,&quot;rounded&quot;:0};" vertex="1" parent="1">
          <mxGeometry x="2639" y="651" width="100" height="300" as="geometry" />
        </mxCell>
        <mxCell id="jdqn0smxBB6up9CHiJCb-67" value="Connection Failure Process" style="text;align=center;fontStyle=1;verticalAlign=middle;spacingLeft=3;spacingRight=3;strokeColor=none;rotatable=0;points=[[0,0.5],[1,0.5]];portConstraint=eastwest;html=1;fontSize=20;" vertex="1" parent="1">
          <mxGeometry x="2778" y="585" width="297" height="26" as="geometry" />
        </mxCell>
        <mxCell id="jdqn0smxBB6up9CHiJCb-68" value="SlaveVehicle" style="shape=umlLifeline;perimeter=lifelinePerimeter;whiteSpace=wrap;html=1;container=1;dropTarget=0;collapsible=0;recursiveResize=0;outlineConnect=0;portConstraint=eastwest;newEdgeStyle={&quot;curved&quot;:0,&quot;rounded&quot;:0};" vertex="1" parent="1">
          <mxGeometry x="2879" y="651" width="100" height="295" as="geometry" />
        </mxCell>
        <mxCell id="jdqn0smxBB6up9CHiJCb-75" value="Server" style="shape=umlLifeline;perimeter=lifelinePerimeter;whiteSpace=wrap;html=1;container=1;dropTarget=0;collapsible=0;recursiveResize=0;outlineConnect=0;portConstraint=eastwest;newEdgeStyle={&quot;curved&quot;:0,&quot;rounded&quot;:0};" vertex="1" parent="1">
          <mxGeometry x="3100" y="653" width="100" height="295" as="geometry" />
        </mxCell>
        <mxCell id="jdqn0smxBB6up9CHiJCb-81" value="SendConnectionFailureEvent()" style="html=1;whiteSpace=wrap;" vertex="1" parent="1">
          <mxGeometry x="2592.5" y="733" width="193" height="27" as="geometry" />
        </mxCell>
        <mxCell id="jdqn0smxBB6up9CHiJCb-82" value="SendConnectionFailureEvent()" style="html=1;whiteSpace=wrap;" vertex="1" parent="1">
          <mxGeometry x="2832.5" y="733" width="193" height="27" as="geometry" />
        </mxCell>
        <mxCell id="jdqn0smxBB6up9CHiJCb-83" value="One Request" style="shape=umlFrame;whiteSpace=wrap;html=1;pointerEvents=0;width=116;height=18;" vertex="1" parent="1">
          <mxGeometry x="2512" y="708" width="534" height="72" as="geometry" />
        </mxCell>
        <mxCell id="jdqn0smxBB6up9CHiJCb-85" value="" style="html=1;verticalAlign=bottom;endArrow=block;curved=0;rounded=0;exitX=1;exitY=0.478;exitDx=0;exitDy=0;exitPerimeter=0;" edge="1" parent="1" source="jdqn0smxBB6up9CHiJCb-83" target="jdqn0smxBB6up9CHiJCb-75">
          <mxGeometry relative="1" as="geometry">
            <mxPoint x="3075" y="746" as="sourcePoint" />
            <mxPoint x="3145" y="743" as="targetPoint" />
          </mxGeometry>
        </mxCell>
        <mxCell id="jdqn0smxBB6up9CHiJCb-87" value="UpdateTripState()" style="html=1;whiteSpace=wrap;" vertex="1" parent="1">
          <mxGeometry x="3084.25" y="782" width="131.5" height="22" as="geometry" />
        </mxCell>
        <mxCell id="jdqn0smxBB6up9CHiJCb-90" style="edgeStyle=orthogonalEdgeStyle;rounded=0;orthogonalLoop=1;jettySize=auto;html=1;exitX=0;exitY=0.25;exitDx=0;exitDy=0;" edge="1" parent="1" source="jdqn0smxBB6up9CHiJCb-89" target="jdqn0smxBB6up9CHiJCb-66">
          <mxGeometry relative="1" as="geometry">
            <Array as="points">
              <mxPoint x="2797" y="826" />
              <mxPoint x="2797" y="826" />
            </Array>
          </mxGeometry>
        </mxCell>
        <mxCell id="jdqn0smxBB6up9CHiJCb-91" style="edgeStyle=orthogonalEdgeStyle;rounded=0;orthogonalLoop=1;jettySize=auto;html=1;exitX=0;exitY=0.75;exitDx=0;exitDy=0;" edge="1" parent="1" source="jdqn0smxBB6up9CHiJCb-89" target="jdqn0smxBB6up9CHiJCb-68">
          <mxGeometry relative="1" as="geometry">
            <Array as="points">
              <mxPoint x="2972" y="838" />
              <mxPoint x="2972" y="838" />
            </Array>
          </mxGeometry>
        </mxCell>
        <mxCell id="jdqn0smxBB6up9CHiJCb-89" value="AnnounceConectionFailure" style="html=1;whiteSpace=wrap;" vertex="1" parent="1">
          <mxGeometry x="3058.63" y="821" width="178.75" height="22" as="geometry" />
        </mxCell>
        <mxCell id="jdqn0smxBB6up9CHiJCb-93" value="HandleEmergencySignal()" style="html=1;whiteSpace=wrap;" vertex="1" parent="1">
          <mxGeometry x="2603" y="852" width="172" height="23" as="geometry" />
        </mxCell>
        <mxCell id="jdqn0smxBB6up9CHiJCb-94" value="EmergencyParking()" style="html=1;whiteSpace=wrap;" vertex="1" parent="1">
          <mxGeometry x="2843" y="852" width="172" height="23" as="geometry" />
        </mxCell>
        <mxCell id="jdqn0smxBB6up9CHiJCb-96" value="Keeping Paths Update to Date" style="text;align=center;fontStyle=1;verticalAlign=middle;spacingLeft=3;spacingRight=3;strokeColor=none;rotatable=0;points=[[0,0.5],[1,0.5]];portConstraint=eastwest;html=1;fontSize=16;" vertex="1" parent="1">
          <mxGeometry x="3515" y="1901" width="264" height="26" as="geometry" />
        </mxCell>
        <mxCell id="jdqn0smxBB6up9CHiJCb-97" value="" style="ellipse;html=1;shape=endState;fillColor=#CC0000;strokeColor=#000033;" vertex="1" parent="1">
          <mxGeometry x="3897.5" y="1954" width="30" height="30" as="geometry" />
        </mxCell>
        <mxCell id="jdqn0smxBB6up9CHiJCb-98" value="" style="ellipse;html=1;shape=endState;fillColor=#007FFF;strokeColor=#000033;fontColor=none;noLabel=1;" vertex="1" parent="1">
          <mxGeometry x="3897.5" y="1992" width="30" height="30" as="geometry" />
        </mxCell>
        <mxCell id="jdqn0smxBB6up9CHiJCb-124" value="" style="group" connectable="0" vertex="1" parent="1">
          <mxGeometry x="3373" y="2068" width="635" height="30" as="geometry" />
        </mxCell>
        <mxCell id="jdqn0smxBB6up9CHiJCb-123" value="" style="endArrow=none;html=1;rounded=0;" edge="1" parent="jdqn0smxBB6up9CHiJCb-124">
          <mxGeometry width="50" height="50" relative="1" as="geometry">
            <mxPoint x="101" y="15" as="sourcePoint" />
            <mxPoint x="635" y="15" as="targetPoint" />
          </mxGeometry>
        </mxCell>
        <mxCell id="jdqn0smxBB6up9CHiJCb-100" value="" style="ellipse;html=1;shape=endState;fillColor=default;strokeColor=#000033;fontColor=none;noLabel=1;" vertex="1" parent="jdqn0smxBB6up9CHiJCb-124">
          <mxGeometry x="123" width="30" height="30" as="geometry" />
        </mxCell>
        <mxCell id="jdqn0smxBB6up9CHiJCb-101" value="" style="ellipse;html=1;shape=endState;fillColor=default;strokeColor=#000033;fontColor=none;noLabel=1;" vertex="1" parent="jdqn0smxBB6up9CHiJCb-124">
          <mxGeometry x="181" width="30" height="30" as="geometry" />
        </mxCell>
        <mxCell id="jdqn0smxBB6up9CHiJCb-102" value="" style="ellipse;html=1;shape=endState;fillColor=default;strokeColor=#000033;fontColor=none;noLabel=1;" vertex="1" parent="jdqn0smxBB6up9CHiJCb-124">
          <mxGeometry x="238" width="30" height="30" as="geometry" />
        </mxCell>
        <mxCell id="jdqn0smxBB6up9CHiJCb-103" value="" style="ellipse;html=1;shape=endState;fillColor=default;strokeColor=#000033;fontColor=none;noLabel=1;" vertex="1" parent="jdqn0smxBB6up9CHiJCb-124">
          <mxGeometry x="295" width="30" height="30" as="geometry" />
        </mxCell>
        <mxCell id="jdqn0smxBB6up9CHiJCb-104" value="" style="ellipse;html=1;shape=endState;fillColor=default;strokeColor=#000033;fontColor=none;noLabel=1;" vertex="1" parent="jdqn0smxBB6up9CHiJCb-124">
          <mxGeometry x="352" width="30" height="30" as="geometry" />
        </mxCell>
        <mxCell id="jdqn0smxBB6up9CHiJCb-105" value="" style="ellipse;html=1;shape=endState;fillColor=default;strokeColor=#000033;fontColor=none;noLabel=1;" vertex="1" parent="jdqn0smxBB6up9CHiJCb-124">
          <mxGeometry x="409" width="30" height="30" as="geometry" />
        </mxCell>
        <mxCell id="jdqn0smxBB6up9CHiJCb-106" value="" style="ellipse;html=1;shape=endState;fillColor=default;strokeColor=#000033;fontColor=none;noLabel=1;" vertex="1" parent="jdqn0smxBB6up9CHiJCb-124">
          <mxGeometry x="465" width="30" height="30" as="geometry" />
        </mxCell>
        <mxCell id="jdqn0smxBB6up9CHiJCb-107" value="" style="ellipse;html=1;shape=endState;fillColor=default;strokeColor=#000033;fontColor=none;noLabel=1;" vertex="1" parent="jdqn0smxBB6up9CHiJCb-124">
          <mxGeometry x="520" width="30" height="30" as="geometry" />
        </mxCell>
        <mxCell id="jdqn0smxBB6up9CHiJCb-109" value="Second 1" style="text;align=center;fontStyle=1;verticalAlign=middle;spacingLeft=3;spacingRight=3;strokeColor=none;rotatable=0;points=[[0,0.5],[1,0.5]];portConstraint=eastwest;html=1;" vertex="1" parent="jdqn0smxBB6up9CHiJCb-124">
          <mxGeometry y="2" width="80" height="26" as="geometry" />
        </mxCell>
        <mxCell id="jdqn0smxBB6up9CHiJCb-180" value="" style="group" connectable="0" vertex="1" parent="jdqn0smxBB6up9CHiJCb-124">
          <mxGeometry x="348" width="202" height="30" as="geometry" />
        </mxCell>
        <mxCell id="jdqn0smxBB6up9CHiJCb-153" value="" style="ellipse;html=1;shape=endState;fillColor=#CC0000;strokeColor=#000033;" vertex="1" parent="jdqn0smxBB6up9CHiJCb-180">
          <mxGeometry x="172" width="30" height="30" as="geometry" />
        </mxCell>
        <mxCell id="jdqn0smxBB6up9CHiJCb-154" value="" style="ellipse;html=1;shape=endState;fillColor=#007FFF;strokeColor=#000033;fontColor=none;noLabel=1;" vertex="1" parent="jdqn0smxBB6up9CHiJCb-124">
          <mxGeometry x="238" width="30" height="30" as="geometry" />
        </mxCell>
        <mxCell id="jdqn0smxBB6up9CHiJCb-155" value="" style="endArrow=none;html=1;rounded=0;strokeWidth=6;" edge="1" parent="jdqn0smxBB6up9CHiJCb-124" source="jdqn0smxBB6up9CHiJCb-154" target="jdqn0smxBB6up9CHiJCb-153">
          <mxGeometry width="50" height="50" relative="1" as="geometry">
            <mxPoint x="839" y="-35" as="sourcePoint" />
            <mxPoint x="874" y="-35" as="targetPoint" />
          </mxGeometry>
        </mxCell>
        <mxCell id="jdqn0smxBB6up9CHiJCb-125" value="" style="group" connectable="0" vertex="1" parent="1">
          <mxGeometry x="3374" y="2139" width="635" height="30" as="geometry" />
        </mxCell>
        <mxCell id="jdqn0smxBB6up9CHiJCb-126" value="" style="endArrow=none;html=1;rounded=0;" edge="1" parent="jdqn0smxBB6up9CHiJCb-125">
          <mxGeometry width="50" height="50" relative="1" as="geometry">
            <mxPoint x="101" y="15" as="sourcePoint" />
            <mxPoint x="635" y="15" as="targetPoint" />
          </mxGeometry>
        </mxCell>
        <mxCell id="jdqn0smxBB6up9CHiJCb-127" value="" style="ellipse;html=1;shape=endState;fillColor=default;strokeColor=#000033;fontColor=none;noLabel=1;" vertex="1" parent="jdqn0smxBB6up9CHiJCb-125">
          <mxGeometry x="123" width="30" height="30" as="geometry" />
        </mxCell>
        <mxCell id="jdqn0smxBB6up9CHiJCb-128" value="" style="ellipse;html=1;shape=endState;fillColor=default;strokeColor=#000033;fontColor=none;noLabel=1;" vertex="1" parent="jdqn0smxBB6up9CHiJCb-125">
          <mxGeometry x="181" width="30" height="30" as="geometry" />
        </mxCell>
        <mxCell id="jdqn0smxBB6up9CHiJCb-129" value="" style="ellipse;html=1;shape=endState;fillColor=default;strokeColor=#000033;fontColor=none;noLabel=1;" vertex="1" parent="jdqn0smxBB6up9CHiJCb-125">
          <mxGeometry x="238" width="30" height="30" as="geometry" />
        </mxCell>
        <mxCell id="jdqn0smxBB6up9CHiJCb-130" value="" style="ellipse;html=1;shape=endState;fillColor=default;strokeColor=#000033;fontColor=none;noLabel=1;" vertex="1" parent="jdqn0smxBB6up9CHiJCb-125">
          <mxGeometry x="295" width="30" height="30" as="geometry" />
        </mxCell>
        <mxCell id="jdqn0smxBB6up9CHiJCb-131" value="" style="ellipse;html=1;shape=endState;fillColor=default;strokeColor=#000033;fontColor=none;noLabel=1;" vertex="1" parent="jdqn0smxBB6up9CHiJCb-125">
          <mxGeometry x="352" width="30" height="30" as="geometry" />
        </mxCell>
        <mxCell id="jdqn0smxBB6up9CHiJCb-132" value="" style="ellipse;html=1;shape=endState;fillColor=default;strokeColor=#000033;fontColor=none;noLabel=1;" vertex="1" parent="jdqn0smxBB6up9CHiJCb-125">
          <mxGeometry x="409" width="30" height="30" as="geometry" />
        </mxCell>
        <mxCell id="jdqn0smxBB6up9CHiJCb-133" value="" style="ellipse;html=1;shape=endState;fillColor=default;strokeColor=#000033;fontColor=none;noLabel=1;" vertex="1" parent="jdqn0smxBB6up9CHiJCb-125">
          <mxGeometry x="465" width="30" height="30" as="geometry" />
        </mxCell>
        <mxCell id="jdqn0smxBB6up9CHiJCb-134" value="" style="ellipse;html=1;shape=endState;fillColor=default;strokeColor=#000033;fontColor=none;noLabel=1;" vertex="1" parent="jdqn0smxBB6up9CHiJCb-125">
          <mxGeometry x="520" width="30" height="30" as="geometry" />
        </mxCell>
        <mxCell id="jdqn0smxBB6up9CHiJCb-135" value="" style="ellipse;html=1;shape=endState;fillColor=default;strokeColor=#000033;fontColor=none;noLabel=1;" vertex="1" parent="jdqn0smxBB6up9CHiJCb-125">
          <mxGeometry x="575" width="30" height="30" as="geometry" />
        </mxCell>
        <mxCell id="jdqn0smxBB6up9CHiJCb-136" value="Second 2" style="text;align=center;fontStyle=1;verticalAlign=middle;spacingLeft=3;spacingRight=3;strokeColor=none;rotatable=0;points=[[0,0.5],[1,0.5]];portConstraint=eastwest;html=1;" vertex="1" parent="jdqn0smxBB6up9CHiJCb-125">
          <mxGeometry y="2" width="80" height="26" as="geometry" />
        </mxCell>
        <mxCell id="jdqn0smxBB6up9CHiJCb-172" value="" style="ellipse;html=1;shape=endState;fillColor=#CC0000;strokeColor=#000033;" vertex="1" parent="jdqn0smxBB6up9CHiJCb-125">
          <mxGeometry x="575" width="30" height="30" as="geometry" />
        </mxCell>
        <mxCell id="jdqn0smxBB6up9CHiJCb-173" value="" style="ellipse;html=1;shape=endState;fillColor=#007FFF;strokeColor=#000033;fontColor=none;noLabel=1;" vertex="1" parent="jdqn0smxBB6up9CHiJCb-125">
          <mxGeometry x="238" width="30" height="30" as="geometry" />
        </mxCell>
        <mxCell id="jdqn0smxBB6up9CHiJCb-174" value="" style="endArrow=none;html=1;rounded=0;strokeWidth=6;" edge="1" parent="jdqn0smxBB6up9CHiJCb-125" source="jdqn0smxBB6up9CHiJCb-173" target="jdqn0smxBB6up9CHiJCb-172">
          <mxGeometry width="50" height="50" relative="1" as="geometry">
            <mxPoint x="609" y="-35" as="sourcePoint" />
            <mxPoint x="644" y="-35" as="targetPoint" />
          </mxGeometry>
        </mxCell>
        <mxCell id="jdqn0smxBB6up9CHiJCb-137" value="" style="group" connectable="0" vertex="1" parent="1">
          <mxGeometry x="3376" y="2200" width="635" height="30" as="geometry" />
        </mxCell>
        <mxCell id="jdqn0smxBB6up9CHiJCb-138" value="" style="endArrow=none;html=1;rounded=0;" edge="1" parent="jdqn0smxBB6up9CHiJCb-137">
          <mxGeometry width="50" height="50" relative="1" as="geometry">
            <mxPoint x="101" y="15" as="sourcePoint" />
            <mxPoint x="635" y="15" as="targetPoint" />
          </mxGeometry>
        </mxCell>
        <mxCell id="jdqn0smxBB6up9CHiJCb-139" value="" style="ellipse;html=1;shape=endState;fillColor=default;strokeColor=#000033;fontColor=none;noLabel=1;" vertex="1" parent="jdqn0smxBB6up9CHiJCb-137">
          <mxGeometry x="123" width="30" height="30" as="geometry" />
        </mxCell>
        <mxCell id="jdqn0smxBB6up9CHiJCb-140" value="" style="ellipse;html=1;shape=endState;fillColor=default;strokeColor=#000033;fontColor=none;noLabel=1;" vertex="1" parent="jdqn0smxBB6up9CHiJCb-137">
          <mxGeometry x="181" width="30" height="30" as="geometry" />
        </mxCell>
        <mxCell id="jdqn0smxBB6up9CHiJCb-141" value="" style="ellipse;html=1;shape=endState;fillColor=default;strokeColor=#000033;fontColor=none;noLabel=1;" vertex="1" parent="jdqn0smxBB6up9CHiJCb-137">
          <mxGeometry x="238" width="30" height="30" as="geometry" />
        </mxCell>
        <mxCell id="jdqn0smxBB6up9CHiJCb-142" value="" style="ellipse;html=1;shape=endState;fillColor=default;strokeColor=#000033;fontColor=none;noLabel=1;" vertex="1" parent="jdqn0smxBB6up9CHiJCb-137">
          <mxGeometry x="295" width="30" height="30" as="geometry" />
        </mxCell>
        <mxCell id="jdqn0smxBB6up9CHiJCb-143" value="" style="ellipse;html=1;shape=endState;fillColor=default;strokeColor=#000033;fontColor=none;noLabel=1;" vertex="1" parent="jdqn0smxBB6up9CHiJCb-137">
          <mxGeometry x="352" width="30" height="30" as="geometry" />
        </mxCell>
        <mxCell id="jdqn0smxBB6up9CHiJCb-144" value="" style="ellipse;html=1;shape=endState;fillColor=default;strokeColor=#000033;fontColor=none;noLabel=1;" vertex="1" parent="jdqn0smxBB6up9CHiJCb-137">
          <mxGeometry x="409" width="30" height="30" as="geometry" />
        </mxCell>
        <mxCell id="jdqn0smxBB6up9CHiJCb-145" value="" style="ellipse;html=1;shape=endState;fillColor=default;strokeColor=#000033;fontColor=none;noLabel=1;" vertex="1" parent="jdqn0smxBB6up9CHiJCb-137">
          <mxGeometry x="465" width="30" height="30" as="geometry" />
        </mxCell>
        <mxCell id="jdqn0smxBB6up9CHiJCb-146" value="" style="ellipse;html=1;shape=endState;fillColor=default;strokeColor=#000033;fontColor=none;noLabel=1;" vertex="1" parent="jdqn0smxBB6up9CHiJCb-137">
          <mxGeometry x="520" width="30" height="30" as="geometry" />
        </mxCell>
        <mxCell id="jdqn0smxBB6up9CHiJCb-147" value="" style="ellipse;html=1;shape=endState;fillColor=default;strokeColor=#000033;fontColor=none;noLabel=1;" vertex="1" parent="jdqn0smxBB6up9CHiJCb-137">
          <mxGeometry x="575" width="30" height="30" as="geometry" />
        </mxCell>
        <mxCell id="jdqn0smxBB6up9CHiJCb-148" value="Second 3" style="text;align=center;fontStyle=1;verticalAlign=middle;spacingLeft=3;spacingRight=3;strokeColor=none;rotatable=0;points=[[0,0.5],[1,0.5]];portConstraint=eastwest;html=1;" vertex="1" parent="jdqn0smxBB6up9CHiJCb-137">
          <mxGeometry y="2" width="80" height="26" as="geometry" />
        </mxCell>
        <mxCell id="jdqn0smxBB6up9CHiJCb-175" value="" style="ellipse;html=1;shape=endState;fillColor=#CC0000;strokeColor=#000033;" vertex="1" parent="jdqn0smxBB6up9CHiJCb-137">
          <mxGeometry x="575" width="30" height="30" as="geometry" />
        </mxCell>
        <mxCell id="jdqn0smxBB6up9CHiJCb-176" value="" style="ellipse;html=1;shape=endState;fillColor=#007FFF;strokeColor=#000033;fontColor=none;noLabel=1;" vertex="1" parent="jdqn0smxBB6up9CHiJCb-137">
          <mxGeometry x="295" width="30" height="30" as="geometry" />
        </mxCell>
        <mxCell id="jdqn0smxBB6up9CHiJCb-177" value="" style="endArrow=none;html=1;rounded=0;strokeWidth=6;" edge="1" parent="jdqn0smxBB6up9CHiJCb-137" source="jdqn0smxBB6up9CHiJCb-176" target="jdqn0smxBB6up9CHiJCb-175">
          <mxGeometry width="50" height="50" relative="1" as="geometry">
            <mxPoint x="666" y="-35" as="sourcePoint" />
            <mxPoint x="701" y="-35" as="targetPoint" />
          </mxGeometry>
        </mxCell>
        <mxCell id="jdqn0smxBB6up9CHiJCb-149" value="Master Location" style="text;html=1;strokeColor=none;fillColor=none;align=center;verticalAlign=middle;whiteSpace=wrap;rounded=0;" vertex="1" parent="1">
          <mxGeometry x="3802" y="1954" width="94.5" height="30" as="geometry" />
        </mxCell>
        <mxCell id="jdqn0smxBB6up9CHiJCb-150" value="Slave Location" style="text;html=1;strokeColor=none;fillColor=none;align=center;verticalAlign=middle;whiteSpace=wrap;rounded=0;" vertex="1" parent="1">
          <mxGeometry x="3805" y="1992" width="94.5" height="30" as="geometry" />
        </mxCell>
        <mxCell id="jdqn0smxBB6up9CHiJCb-151" value="" style="endArrow=none;html=1;rounded=0;strokeWidth=6;" edge="1" parent="1">
          <mxGeometry width="50" height="50" relative="1" as="geometry">
            <mxPoint x="3716" y="2013" as="sourcePoint" />
            <mxPoint x="3751" y="2013" as="targetPoint" />
          </mxGeometry>
        </mxCell>
        <mxCell id="jdqn0smxBB6up9CHiJCb-152" value="Saved Path" style="text;html=1;strokeColor=none;fillColor=none;align=center;verticalAlign=middle;whiteSpace=wrap;rounded=0;" vertex="1" parent="1">
          <mxGeometry x="3639" y="1998" width="74" height="30" as="geometry" />
        </mxCell>
        <mxCell id="jdqn0smxBB6up9CHiJCb-178" value="" style="ellipse;html=1;shape=endState;fillColor=#FFFFFF;strokeColor=#000033;" vertex="1" parent="1">
          <mxGeometry x="3719" y="1958" width="30" height="30" as="geometry" />
        </mxCell>
        <mxCell id="jdqn0smxBB6up9CHiJCb-179" value="Previous Location For Master" style="text;html=1;strokeColor=none;fillColor=none;align=center;verticalAlign=middle;whiteSpace=wrap;rounded=0;" vertex="1" parent="1">
          <mxGeometry x="3550" y="1958" width="163" height="30" as="geometry" />
        </mxCell>
        <mxCell id="jdqn0smxBB6up9CHiJCb-183" value="" style="group" connectable="0" vertex="1" parent="1">
          <mxGeometry x="3378" y="2262" width="635" height="30" as="geometry" />
        </mxCell>
        <mxCell id="jdqn0smxBB6up9CHiJCb-184" value="" style="endArrow=none;html=1;rounded=0;" edge="1" parent="jdqn0smxBB6up9CHiJCb-183">
          <mxGeometry width="50" height="50" relative="1" as="geometry">
            <mxPoint x="101" y="15" as="sourcePoint" />
            <mxPoint x="635" y="15" as="targetPoint" />
          </mxGeometry>
        </mxCell>
        <mxCell id="jdqn0smxBB6up9CHiJCb-185" value="" style="ellipse;html=1;shape=endState;fillColor=default;strokeColor=#000033;fontColor=none;noLabel=1;" vertex="1" parent="jdqn0smxBB6up9CHiJCb-183">
          <mxGeometry x="123" width="30" height="30" as="geometry" />
        </mxCell>
        <mxCell id="jdqn0smxBB6up9CHiJCb-186" value="" style="ellipse;html=1;shape=endState;fillColor=default;strokeColor=#000033;fontColor=none;noLabel=1;" vertex="1" parent="jdqn0smxBB6up9CHiJCb-183">
          <mxGeometry x="181" width="30" height="30" as="geometry" />
        </mxCell>
        <mxCell id="jdqn0smxBB6up9CHiJCb-187" value="" style="ellipse;html=1;shape=endState;fillColor=default;strokeColor=#000033;fontColor=none;noLabel=1;" vertex="1" parent="jdqn0smxBB6up9CHiJCb-183">
          <mxGeometry x="238" width="30" height="30" as="geometry" />
        </mxCell>
        <mxCell id="jdqn0smxBB6up9CHiJCb-188" value="" style="ellipse;html=1;shape=endState;fillColor=default;strokeColor=#000033;fontColor=none;noLabel=1;" vertex="1" parent="jdqn0smxBB6up9CHiJCb-183">
          <mxGeometry x="295" width="30" height="30" as="geometry" />
        </mxCell>
        <mxCell id="jdqn0smxBB6up9CHiJCb-189" value="" style="ellipse;html=1;shape=endState;fillColor=default;strokeColor=#000033;fontColor=none;noLabel=1;" vertex="1" parent="jdqn0smxBB6up9CHiJCb-183">
          <mxGeometry x="352" width="30" height="30" as="geometry" />
        </mxCell>
        <mxCell id="jdqn0smxBB6up9CHiJCb-190" value="" style="ellipse;html=1;shape=endState;fillColor=default;strokeColor=#000033;fontColor=none;noLabel=1;" vertex="1" parent="jdqn0smxBB6up9CHiJCb-183">
          <mxGeometry x="409" width="30" height="30" as="geometry" />
        </mxCell>
        <mxCell id="jdqn0smxBB6up9CHiJCb-191" value="" style="ellipse;html=1;shape=endState;fillColor=default;strokeColor=#000033;fontColor=none;noLabel=1;" vertex="1" parent="jdqn0smxBB6up9CHiJCb-183">
          <mxGeometry x="465" width="30" height="30" as="geometry" />
        </mxCell>
        <mxCell id="jdqn0smxBB6up9CHiJCb-192" value="" style="ellipse;html=1;shape=endState;fillColor=default;strokeColor=#000033;fontColor=none;noLabel=1;" vertex="1" parent="jdqn0smxBB6up9CHiJCb-183">
          <mxGeometry x="520" width="30" height="30" as="geometry" />
        </mxCell>
        <mxCell id="jdqn0smxBB6up9CHiJCb-193" value="" style="ellipse;html=1;shape=endState;fillColor=default;strokeColor=#000033;fontColor=none;noLabel=1;" vertex="1" parent="jdqn0smxBB6up9CHiJCb-183">
          <mxGeometry x="575" width="30" height="30" as="geometry" />
        </mxCell>
        <mxCell id="jdqn0smxBB6up9CHiJCb-194" value="Second 4" style="text;align=center;fontStyle=1;verticalAlign=middle;spacingLeft=3;spacingRight=3;strokeColor=none;rotatable=0;points=[[0,0.5],[1,0.5]];portConstraint=eastwest;html=1;" vertex="1" parent="jdqn0smxBB6up9CHiJCb-183">
          <mxGeometry y="2" width="80" height="26" as="geometry" />
        </mxCell>
        <mxCell id="jdqn0smxBB6up9CHiJCb-195" value="" style="ellipse;html=1;shape=endState;fillColor=#CC0000;strokeColor=#000033;" vertex="1" parent="jdqn0smxBB6up9CHiJCb-183">
          <mxGeometry x="575" width="30" height="30" as="geometry" />
        </mxCell>
        <mxCell id="jdqn0smxBB6up9CHiJCb-196" value="" style="ellipse;html=1;shape=endState;fillColor=#007FFF;strokeColor=#000033;fontColor=none;noLabel=1;" vertex="1" parent="jdqn0smxBB6up9CHiJCb-183">
          <mxGeometry x="352" width="30" height="30" as="geometry" />
        </mxCell>
        <mxCell id="jdqn0smxBB6up9CHiJCb-197" value="" style="endArrow=none;html=1;rounded=0;strokeWidth=6;" edge="1" parent="jdqn0smxBB6up9CHiJCb-183" source="jdqn0smxBB6up9CHiJCb-196" target="jdqn0smxBB6up9CHiJCb-195">
          <mxGeometry width="50" height="50" relative="1" as="geometry">
            <mxPoint x="666" y="-35" as="sourcePoint" />
            <mxPoint x="701" y="-35" as="targetPoint" />
          </mxGeometry>
        </mxCell>
        <mxCell id="jdqn0smxBB6up9CHiJCb-198" value="" style="endArrow=classic;html=1;rounded=0;" edge="1" parent="1">
          <mxGeometry relative="1" as="geometry">
            <mxPoint x="1976.87" y="288.5000000000001" as="sourcePoint" />
            <mxPoint x="1737.0004347826084" y="288.5000000000001" as="targetPoint" />
          </mxGeometry>
        </mxCell>
        <mxCell id="jdqn0smxBB6up9CHiJCb-199" value="Direct connection is lost ?" style="edgeLabel;resizable=0;html=1;align=center;verticalAlign=middle;" connectable="0" vertex="1" parent="jdqn0smxBB6up9CHiJCb-198">
          <mxGeometry relative="1" as="geometry" />
        </mxCell>
        <mxCell id="9sedSt-S-R0e62px91Fn-4" value="Ismail" style="rounded=0;whiteSpace=wrap;html=1;" vertex="1" parent="1">
          <mxGeometry x="3688" y="100" width="120" height="60" as="geometry" />
        </mxCell>
        <mxCell id="9sedSt-S-R0e62px91Fn-10" style="edgeStyle=orthogonalEdgeStyle;rounded=0;orthogonalLoop=1;jettySize=auto;html=1;entryX=0;entryY=0.5;entryDx=0;entryDy=0;" edge="1" parent="1" source="9sedSt-S-R0e62px91Fn-5" target="9sedSt-S-R0e62px91Fn-6">
          <mxGeometry relative="1" as="geometry" />
        </mxCell>
        <mxCell id="9sedSt-S-R0e62px91Fn-5" value="" style="ellipse;html=1;shape=endState;fillColor=none;strokeColor=#ff0000;" vertex="1" parent="1">
          <mxGeometry x="3347" y="341" width="30" height="30" as="geometry" />
        </mxCell>
        <mxCell id="9sedSt-S-R0e62px91Fn-9" style="edgeStyle=orthogonalEdgeStyle;rounded=0;orthogonalLoop=1;jettySize=auto;html=1;entryX=0;entryY=0.5;entryDx=0;entryDy=0;" edge="1" parent="1" source="9sedSt-S-R0e62px91Fn-6" target="9sedSt-S-R0e62px91Fn-8">
          <mxGeometry relative="1" as="geometry" />
        </mxCell>
        <mxCell id="9sedSt-S-R0e62px91Fn-6" value="&lt;span style=&quot;margin: 0px; padding: 0.688px 0px 0px; user-select: text; -webkit-user-drag: none; -webkit-tap-highlight-color: transparent; touch-action: pan-x pan-y; font-variant-numeric: normal; font-variant-east-asian: normal; font-variant-alternates: normal; font-variant-position: normal; letter-spacing: 0px; background-color: rgb(245, 245, 245); font-weight: bold; font-size: 18pt; font-family: &amp;quot;Times New Roman&amp;quot;, &amp;quot;Times New Roman_EmbeddedFont&amp;quot;, &amp;quot;Times New Roman_MSFontService&amp;quot;, &amp;quot;Times New Roman_MSFontService&amp;quot;, Calibri, sans-serif; font-kerning: normal; line-height: 25px; vertical-align: -0.688px;&quot; lang=&quot;EN-US&quot; class=&quot;TextRun  BCX0 SCXP105358168&quot; data-contrast=&quot;none&quot; data-usefontface=&quot;true&quot; data-scheme-color=&quot;@000000,1,&quot;&gt;&lt;/span&gt;&lt;span style=&quot;margin: 0px; padding: 0.688px 0px 0px; user-select: text; -webkit-user-drag: none; -webkit-tap-highlight-color: transparent; touch-action: pan-x pan-y; font-variant-numeric: normal; font-variant-east-asian: normal; font-variant-alternates: normal; font-variant-position: normal; letter-spacing: 0px; background-color: rgb(245, 245, 245); font-weight: bold; font-size: 18pt; font-family: &amp;quot;Times New Roman&amp;quot;, &amp;quot;Times New Roman_EmbeddedFont&amp;quot;, &amp;quot;Times New Roman_MSFontService&amp;quot;, &amp;quot;Times New Roman_MSFontService&amp;quot;, Calibri, sans-serif; font-kerning: normal; line-height: 25px; vertical-align: -0.688px;&quot; lang=&quot;EN-US&quot; class=&quot;TextRun  BCX0 SCXP105358168&quot; data-contrast=&quot;none&quot; data-usefontface=&quot;true&quot; data-scheme-color=&quot;@000000,1,&quot;&gt;&lt;span style=&quot;margin: 0px; padding: 0px; user-select: text; -webkit-user-drag: none; -webkit-tap-highlight-color: transparent; touch-action: pan-x pan-y; vertical-align: 0.688px; line-height: 0px; position: relative;&quot; class=&quot;NormalTextRun  BCX0 SCXP105358168&quot;&gt;Sending Address&amp;nbsp;&lt;/span&gt;&lt;/span&gt;&lt;span style=&quot;margin: 0px; padding: 0.688px 0px 0px; user-select: text; -webkit-user-drag: none; -webkit-tap-highlight-color: transparent; touch-action: pan-x pan-y; font-variant-numeric: normal; font-variant-east-asian: normal; font-variant-alternates: normal; font-variant-position: normal; letter-spacing: 0px; background-color: rgb(245, 245, 245); font-weight: bold; font-size: 18pt; font-family: &amp;quot;Times New Roman&amp;quot;, &amp;quot;Times New Roman_EmbeddedFont&amp;quot;, &amp;quot;Times New Roman_MSFontService&amp;quot;, &amp;quot;Times New Roman_MSFontService&amp;quot;, Calibri, sans-serif; font-kerning: normal; line-height: 25px; vertical-align: -0.688px;&quot; lang=&quot;EN-US&quot; class=&quot;TextRun  BCX0 SCXP105358168&quot; data-contrast=&quot;none&quot; data-usefontface=&quot;true&quot; data-scheme-color=&quot;@000000,1,&quot;&gt;&lt;span style=&quot;margin: 0px; padding: 0px; user-select: text; -webkit-user-drag: none; -webkit-tap-highlight-color: transparent; touch-action: pan-x pan-y; vertical-align: 0.688px; line-height: 0px; position: relative;&quot; class=&quot;NormalTextRun  BCX0 SCXP105358168&quot;&gt;of trip&lt;/span&gt;&lt;/span&gt;" style="ellipse;whiteSpace=wrap;html=1;aspect=fixed;" vertex="1" parent="1">
          <mxGeometry x="3502" y="255" width="200" height="200" as="geometry" />
        </mxCell>
        <mxCell id="9sedSt-S-R0e62px91Fn-12" style="edgeStyle=orthogonalEdgeStyle;rounded=0;orthogonalLoop=1;jettySize=auto;html=1;entryX=0;entryY=0.5;entryDx=0;entryDy=0;" edge="1" parent="1" source="9sedSt-S-R0e62px91Fn-8" target="9sedSt-S-R0e62px91Fn-11">
          <mxGeometry relative="1" as="geometry" />
        </mxCell>
        <mxCell id="9sedSt-S-R0e62px91Fn-8" value="&lt;span style=&quot;margin: 0px; padding: 0.688px 0px 0px; user-select: text; -webkit-user-drag: none; -webkit-tap-highlight-color: transparent; touch-action: pan-x pan-y; font-variant-numeric: normal; font-variant-east-asian: normal; font-variant-alternates: normal; font-variant-position: normal; letter-spacing: 0px; background-color: rgb(245, 245, 245); font-weight: bold; font-size: 18pt; font-family: &amp;quot;Times New Roman&amp;quot;, &amp;quot;Times New Roman_EmbeddedFont&amp;quot;, &amp;quot;Times New Roman_MSFontService&amp;quot;, &amp;quot;Times New Roman_MSFontService&amp;quot;, Calibri, sans-serif; font-kerning: normal; line-height: 25px; vertical-align: -0.688px;&quot; lang=&quot;EN-US&quot; class=&quot;TextRun SCXP46503610 BCX0&quot; data-contrast=&quot;none&quot; data-usefontface=&quot;true&quot; data-scheme-color=&quot;@000000,1,&quot;&gt;&lt;/span&gt;&lt;span style=&quot;margin: 0px; padding: 0.688px 0px 0px; user-select: text; -webkit-user-drag: none; -webkit-tap-highlight-color: transparent; touch-action: pan-x pan-y; font-variant-numeric: normal; font-variant-east-asian: normal; font-variant-alternates: normal; font-variant-position: normal; letter-spacing: 0px; background-color: rgb(245, 245, 245); font-weight: bold; font-size: 18pt; font-family: &amp;quot;Times New Roman&amp;quot;, &amp;quot;Times New Roman_EmbeddedFont&amp;quot;, &amp;quot;Times New Roman_MSFontService&amp;quot;, &amp;quot;Times New Roman_MSFontService&amp;quot;, Calibri, sans-serif; font-kerning: normal; line-height: 25px; vertical-align: -0.688px;&quot; lang=&quot;EN-US&quot; class=&quot;TextRun SCXP46503610 BCX0&quot; data-contrast=&quot;none&quot; data-usefontface=&quot;true&quot; data-scheme-color=&quot;@000000,1,&quot;&gt;&lt;span style=&quot;margin: 0px; padding: 0px; user-select: text; -webkit-user-drag: none; -webkit-tap-highlight-color: transparent; touch-action: pan-x pan-y; vertical-align: 0.688px; line-height: 0px; position: relative;&quot; class=&quot;NormalTextRun SCXP46503610 BCX0&quot;&gt;Sending&lt;br&gt;Trip&amp;nbsp;&lt;/span&gt;&lt;/span&gt;&lt;span style=&quot;margin: 0px; padding: 0.688px 0px 0px; user-select: text; -webkit-user-drag: none; -webkit-tap-highlight-color: transparent; touch-action: pan-x pan-y; font-variant-numeric: normal; font-variant-east-asian: normal; font-variant-alternates: normal; font-variant-position: normal; letter-spacing: 0px; background-color: rgb(245, 245, 245); font-weight: bold; font-size: 18pt; font-family: &amp;quot;Times New Roman&amp;quot;, &amp;quot;Times New Roman_EmbeddedFont&amp;quot;, &amp;quot;Times New Roman_MSFontService&amp;quot;, &amp;quot;Times New Roman_MSFontService&amp;quot;, Calibri, sans-serif; font-kerning: normal; line-height: 25px; vertical-align: -0.688px;&quot; lang=&quot;EN-US&quot; class=&quot;TextRun SCXP46503610 BCX0&quot; data-contrast=&quot;none&quot; data-usefontface=&quot;true&quot; data-scheme-color=&quot;@000000,1,&quot;&gt;&lt;span style=&quot;margin: 0px; padding: 0px; user-select: text; -webkit-user-drag: none; -webkit-tap-highlight-color: transparent; touch-action: pan-x pan-y; vertical-align: 0.688px; line-height: 0px; position: relative;&quot; class=&quot;NormalTextRun SCXP46503610 BCX0&quot;&gt;location&lt;/span&gt;&lt;/span&gt;&lt;span style=&quot;margin: 0px; padding: 0px; user-select: text; -webkit-user-drag: none; -webkit-tap-highlight-color: transparent; touch-action: pan-x pan-y; background-color: rgb(245, 245, 245); font-size: 18pt; line-height: 0px; font-family: &amp;quot;Times New Roman&amp;quot;, &amp;quot;Times New Roman_EmbeddedFont&amp;quot;, &amp;quot;Times New Roman_MSFontService&amp;quot;, &amp;quot;Times New Roman_MSFontService&amp;quot;, Calibri, sans-serif;&quot; class=&quot;EOP SCXP46503610 BCX0&quot;&gt;​&lt;/span&gt;" style="ellipse;whiteSpace=wrap;html=1;aspect=fixed;" vertex="1" parent="1">
          <mxGeometry x="3822" y="276.5" width="159" height="159" as="geometry" />
        </mxCell>
        <mxCell id="9sedSt-S-R0e62px91Fn-18" style="edgeStyle=orthogonalEdgeStyle;rounded=0;orthogonalLoop=1;jettySize=auto;html=1;entryX=0.5;entryY=0;entryDx=0;entryDy=0;" edge="1" parent="1" source="9sedSt-S-R0e62px91Fn-11" target="9sedSt-S-R0e62px91Fn-13">
          <mxGeometry relative="1" as="geometry" />
        </mxCell>
        <mxCell id="9sedSt-S-R0e62px91Fn-11" value="&lt;span style=&quot;margin: 0px; padding: 0.688px 0px 0px; user-select: text; -webkit-user-drag: none; -webkit-tap-highlight-color: transparent; touch-action: pan-x pan-y; font-variant-numeric: normal; font-variant-east-asian: normal; font-variant-alternates: normal; font-variant-position: normal; letter-spacing: 0px; background-color: rgb(245, 245, 245); font-weight: bold; font-size: 18pt; font-family: &amp;quot;Times New Roman&amp;quot;, &amp;quot;Times New Roman_EmbeddedFont&amp;quot;, &amp;quot;Times New Roman_MSFontService&amp;quot;, &amp;quot;Times New Roman_MSFontService&amp;quot;, Calibri, sans-serif; font-kerning: normal; line-height: 25px; vertical-align: -0.688px;&quot; lang=&quot;EN-US&quot; class=&quot;TextRun  BCX0 SCXP206140556&quot; data-contrast=&quot;none&quot; data-usefontface=&quot;true&quot; data-scheme-color=&quot;@000000,1,&quot;&gt;&lt;/span&gt;&lt;span style=&quot;margin: 0px; padding: 0.688px 0px 0px; user-select: text; -webkit-user-drag: none; -webkit-tap-highlight-color: transparent; touch-action: pan-x pan-y; font-variant-numeric: normal; font-variant-east-asian: normal; font-variant-alternates: normal; font-variant-position: normal; letter-spacing: 0px; background-color: rgb(245, 245, 245); font-weight: bold; font-size: 18pt; font-family: &amp;quot;Times New Roman&amp;quot;, &amp;quot;Times New Roman_EmbeddedFont&amp;quot;, &amp;quot;Times New Roman_MSFontService&amp;quot;, &amp;quot;Times New Roman_MSFontService&amp;quot;, Calibri, sans-serif; font-kerning: normal; line-height: 25px; vertical-align: -0.688px;&quot; lang=&quot;EN-US&quot; class=&quot;TextRun  BCX0 SCXP206140556&quot; data-contrast=&quot;none&quot; data-usefontface=&quot;true&quot; data-scheme-color=&quot;@000000,1,&quot;&gt;&lt;span style=&quot;margin: 0px; padding: 0px; user-select: text; -webkit-user-drag: none; -webkit-tap-highlight-color: transparent; touch-action: pan-x pan-y; vertical-align: 0.688px; line-height: 0px; position: relative;&quot; class=&quot;NormalTextRun  BCX0 SCXP206140556&quot;&gt;Sending &lt;br&gt;Speed&lt;/span&gt;&lt;/span&gt;" style="ellipse;whiteSpace=wrap;html=1;aspect=fixed;" vertex="1" parent="1">
          <mxGeometry x="4152" y="280.75" width="150.5" height="150.5" as="geometry" />
        </mxCell>
        <mxCell id="9sedSt-S-R0e62px91Fn-17" style="edgeStyle=orthogonalEdgeStyle;rounded=0;orthogonalLoop=1;jettySize=auto;html=1;entryX=1;entryY=0.5;entryDx=0;entryDy=0;" edge="1" parent="1" source="9sedSt-S-R0e62px91Fn-13" target="9sedSt-S-R0e62px91Fn-15">
          <mxGeometry relative="1" as="geometry">
            <mxPoint x="4078" y="662.5" as="targetPoint" />
          </mxGeometry>
        </mxCell>
        <mxCell id="9sedSt-S-R0e62px91Fn-13" value="&lt;span style=&quot;margin: 0px; padding: 0.688px 0px 0px; user-select: text; -webkit-user-drag: none; -webkit-tap-highlight-color: transparent; touch-action: pan-x pan-y; font-variant-numeric: normal; font-variant-east-asian: normal; font-variant-alternates: normal; font-variant-position: normal; letter-spacing: 0px; background-color: rgb(245, 245, 245); font-weight: bold; font-size: 18pt; font-family: &amp;quot;Times New Roman&amp;quot;, &amp;quot;Times New Roman_EmbeddedFont&amp;quot;, &amp;quot;Times New Roman_MSFontService&amp;quot;, &amp;quot;Times New Roman_MSFontService&amp;quot;, Calibri, sans-serif; font-kerning: normal; line-height: 25px; vertical-align: -0.688px;&quot; lang=&quot;EN-US&quot; class=&quot;TextRun SCXP146589601 BCX0&quot; data-contrast=&quot;none&quot; data-usefontface=&quot;true&quot; data-scheme-color=&quot;@000000,1,&quot;&gt;&lt;/span&gt;&lt;span style=&quot;margin: 0px; padding: 0.688px 0px 0px; user-select: text; -webkit-user-drag: none; -webkit-tap-highlight-color: transparent; touch-action: pan-x pan-y; font-variant-numeric: normal; font-variant-east-asian: normal; font-variant-alternates: normal; font-variant-position: normal; letter-spacing: 0px; background-color: rgb(245, 245, 245); font-weight: bold; font-size: 18pt; font-family: &amp;quot;Times New Roman&amp;quot;, &amp;quot;Times New Roman_EmbeddedFont&amp;quot;, &amp;quot;Times New Roman_MSFontService&amp;quot;, &amp;quot;Times New Roman_MSFontService&amp;quot;, Calibri, sans-serif; font-kerning: normal; line-height: 25px; vertical-align: -0.688px;&quot; lang=&quot;EN-US&quot; class=&quot;TextRun SCXP146589601 BCX0&quot; data-contrast=&quot;none&quot; data-usefontface=&quot;true&quot; data-scheme-color=&quot;@000000,1,&quot;&gt;&lt;span style=&quot;margin: 0px; padding: 0px; user-select: text; -webkit-user-drag: none; -webkit-tap-highlight-color: transparent; touch-action: pan-x pan-y; vertical-align: 0.688px; line-height: 0px; position: relative;&quot; class=&quot;NormalTextRun SCXP146589601 BCX0&quot;&gt;Sending &lt;br&gt;Steering&amp;nbsp;&lt;/span&gt;&lt;/span&gt;&lt;span style=&quot;margin: 0px; padding: 0.688px 0px 0px; user-select: text; -webkit-user-drag: none; -webkit-tap-highlight-color: transparent; touch-action: pan-x pan-y; font-variant-numeric: normal; font-variant-east-asian: normal; font-variant-alternates: normal; font-variant-position: normal; letter-spacing: 0px; background-color: rgb(245, 245, 245); font-weight: bold; font-size: 18pt; font-family: &amp;quot;Times New Roman&amp;quot;, &amp;quot;Times New Roman_EmbeddedFont&amp;quot;, &amp;quot;Times New Roman_MSFontService&amp;quot;, &amp;quot;Times New Roman_MSFontService&amp;quot;, Calibri, sans-serif; font-kerning: normal; line-height: 25px; vertical-align: -0.688px;&quot; lang=&quot;EN-US&quot; class=&quot;TextRun SCXP146589601 BCX0&quot; data-contrast=&quot;none&quot; data-usefontface=&quot;true&quot; data-scheme-color=&quot;@000000,1,&quot;&gt;&lt;span style=&quot;margin: 0px; padding: 0px; user-select: text; -webkit-user-drag: none; -webkit-tap-highlight-color: transparent; touch-action: pan-x pan-y; vertical-align: 0.688px; line-height: 0px; position: relative;&quot; class=&quot;NormalTextRun SCXP146589601 BCX0&quot;&gt;angle&lt;/span&gt;&lt;/span&gt;&lt;span style=&quot;margin: 0px; padding: 0px; user-select: text; -webkit-user-drag: none; -webkit-tap-highlight-color: transparent; touch-action: pan-x pan-y; background-color: rgb(245, 245, 245); font-size: 18pt; line-height: 0px; font-family: &amp;quot;Times New Roman&amp;quot;, &amp;quot;Times New Roman_EmbeddedFont&amp;quot;, &amp;quot;Times New Roman_MSFontService&amp;quot;, &amp;quot;Times New Roman_MSFontService&amp;quot;, Calibri, sans-serif;&quot; class=&quot;EOP SCXP146589601 BCX0&quot;&gt;​&lt;/span&gt;" style="ellipse;whiteSpace=wrap;html=1;aspect=fixed;" vertex="1" parent="1">
          <mxGeometry x="4148.25" y="583" width="158" height="158" as="geometry" />
        </mxCell>
        <mxCell id="9sedSt-S-R0e62px91Fn-15" value="" style="ellipse;html=1;shape=endState;fillColor=#000000;strokeColor=#ff0000;" vertex="1" parent="1">
          <mxGeometry x="3611" y="647" width="30" height="30" as="geometry" />
        </mxCell>
        <mxCell id="LqTYvNzgL-PPpx8nboqL-1" value="Emergency parking" style="ellipse;whiteSpace=wrap;html=1;fontSize=38;fontStyle=0" vertex="1" parent="1">
          <mxGeometry x="1803" y="1866" width="550" height="90" as="geometry" />
        </mxCell>
        <mxCell id="LqTYvNzgL-PPpx8nboqL-2" value="" style="endArrow=classic;html=1;rounded=0;edgeStyle=orthogonalEdgeStyle;curved=1;targetPerimeterSpacing=0;endSize=14;" edge="1" parent="1" source="usLuf1yd0n8D8zEF4iEt-23" target="usLuf1yd0n8D8zEF4iEt-2">
          <mxGeometry relative="1" as="geometry">
            <mxPoint x="835" y="1575" as="sourcePoint" />
            <mxPoint x="856" y="2157" as="targetPoint" />
            <Array as="points">
              <mxPoint x="332" y="2103" />
              <mxPoint x="719" y="2103" />
            </Array>
          </mxGeometry>
        </mxCell>
        <mxCell id="LqTYvNzgL-PPpx8nboqL-3" value="Lost Direct Connection&lt;br&gt;With Master" style="edgeLabel;resizable=0;html=1;align=center;verticalAlign=middle;fontSize=30;" connectable="0" vertex="1" parent="LqTYvNzgL-PPpx8nboqL-2">
          <mxGeometry relative="1" as="geometry">
            <mxPoint x="-29" y="-6" as="offset" />
          </mxGeometry>
        </mxCell>
        <mxCell id="LqTYvNzgL-PPpx8nboqL-7" style="edgeStyle=orthogonalEdgeStyle;rounded=0;orthogonalLoop=1;jettySize=auto;html=1;exitX=0.5;exitY=1;exitDx=0;exitDy=0;" edge="1" parent="1" source="LqTYvNzgL-PPpx8nboqL-6" target="LqTYvNzgL-PPpx8nboqL-1">
          <mxGeometry relative="1" as="geometry" />
        </mxCell>
        <mxCell id="LqTYvNzgL-PPpx8nboqL-8" value="Lost Connection To Server&amp;nbsp; /&lt;br&gt;Received Emergency Signal From Server" style="edgeLabel;html=1;align=center;verticalAlign=middle;resizable=0;points=[];fontSize=21;" connectable="0" vertex="1" parent="LqTYvNzgL-PPpx8nboqL-7">
          <mxGeometry x="-0.2009" y="-3" relative="1" as="geometry">
            <mxPoint y="37" as="offset" />
          </mxGeometry>
        </mxCell>
        <mxCell id="LqTYvNzgL-PPpx8nboqL-6" value="" style="ellipse;html=1;shape=endState;fillColor=none;strokeColor=#000033;" vertex="1" parent="1">
          <mxGeometry x="2030.5" y="1464" width="95" height="95" as="geometry" />
        </mxCell>
        <mxCell id="LqTYvNzgL-PPpx8nboqL-9" value="Ideal" style="ellipse;whiteSpace=wrap;html=1;fontSize=38;fontStyle=0" vertex="1" parent="1">
          <mxGeometry x="689" y="2549" width="335" height="90" as="geometry" />
        </mxCell>
        <mxCell id="LqTYvNzgL-PPpx8nboqL-14" value="" style="endArrow=classic;html=1;rounded=0;exitX=0;exitY=1;exitDx=0;exitDy=0;endSize=14;edgeStyle=orthogonalEdgeStyle;curved=1;" edge="1" parent="1" source="LqTYvNzgL-PPpx8nboqL-9" target="LqTYvNzgL-PPpx8nboqL-29">
          <mxGeometry relative="1" as="geometry">
            <mxPoint x="637" y="2631" as="sourcePoint" />
            <mxPoint x="313" y="2806" as="targetPoint" />
          </mxGeometry>
        </mxCell>
        <mxCell id="LqTYvNzgL-PPpx8nboqL-15" value="Lost Connection To A Slave" style="edgeLabel;resizable=0;html=1;align=center;verticalAlign=middle;fontSize=30;" connectable="0" vertex="1" parent="LqTYvNzgL-PPpx8nboqL-14">
          <mxGeometry relative="1" as="geometry">
            <mxPoint x="18" y="115" as="offset" />
          </mxGeometry>
        </mxCell>
        <mxCell id="LqTYvNzgL-PPpx8nboqL-22" value="Master State Machine" style="text;align=center;fontStyle=1;verticalAlign=middle;spacingLeft=3;spacingRight=3;strokeColor=none;rotatable=0;points=[[0,0.5],[1,0.5]];portConstraint=eastwest;html=1;fontSize=38;" vertex="1" parent="1">
          <mxGeometry x="550" y="2441" width="618" height="48" as="geometry" />
        </mxCell>
        <mxCell id="LqTYvNzgL-PPpx8nboqL-23" value="Emergency parking" style="ellipse;whiteSpace=wrap;html=1;fontSize=38;fontStyle=0" vertex="1" parent="1">
          <mxGeometry x="1057" y="3073" width="550" height="90" as="geometry" />
        </mxCell>
        <mxCell id="LqTYvNzgL-PPpx8nboqL-26" style="edgeStyle=orthogonalEdgeStyle;rounded=0;orthogonalLoop=1;jettySize=auto;html=1;exitX=0.5;exitY=1;exitDx=0;exitDy=0;" edge="1" parent="1" source="LqTYvNzgL-PPpx8nboqL-28" target="LqTYvNzgL-PPpx8nboqL-23">
          <mxGeometry relative="1" as="geometry" />
        </mxCell>
        <mxCell id="LqTYvNzgL-PPpx8nboqL-27" value="Lost Connection To Server&amp;nbsp; /&lt;br style=&quot;border-color: var(--border-color);&quot;&gt;Received Emergency Signal From Server" style="edgeLabel;html=1;align=center;verticalAlign=middle;resizable=0;points=[];fontSize=21;" connectable="0" vertex="1" parent="LqTYvNzgL-PPpx8nboqL-26">
          <mxGeometry x="-0.2009" y="-3" relative="1" as="geometry">
            <mxPoint y="37" as="offset" />
          </mxGeometry>
        </mxCell>
        <mxCell id="LqTYvNzgL-PPpx8nboqL-28" value="" style="ellipse;html=1;shape=endState;fillColor=none;strokeColor=#000033;" vertex="1" parent="1">
          <mxGeometry x="1284.5" y="2671" width="95" height="95" as="geometry" />
        </mxCell>
        <mxCell id="LqTYvNzgL-PPpx8nboqL-30" style="edgeStyle=orthogonalEdgeStyle;rounded=0;orthogonalLoop=1;jettySize=auto;html=1;exitX=1;exitY=0;exitDx=0;exitDy=0;curved=1;" edge="1" parent="1" source="LqTYvNzgL-PPpx8nboqL-29" target="LqTYvNzgL-PPpx8nboqL-9">
          <mxGeometry relative="1" as="geometry" />
        </mxCell>
        <mxCell id="LqTYvNzgL-PPpx8nboqL-31" value="Connection established with all slaves" style="edgeLabel;html=1;align=center;verticalAlign=middle;resizable=0;points=[];fontSize=30;" connectable="0" vertex="1" parent="LqTYvNzgL-PPpx8nboqL-30">
          <mxGeometry x="0.2942" y="47" relative="1" as="geometry">
            <mxPoint x="-31" y="43" as="offset" />
          </mxGeometry>
        </mxCell>
        <mxCell id="LqTYvNzgL-PPpx8nboqL-29" value="Show &quot;Stop&quot; Signal" style="ellipse;whiteSpace=wrap;html=1;fontSize=38;fontStyle=0" vertex="1" parent="1">
          <mxGeometry x="161" y="3065" width="442" height="90" as="geometry" />
        </mxCell>
        <mxCell id="HDunjQT9ZqvCOJkdYQjt-1" value="" style="endArrow=classic;html=1;rounded=0;" edge="1" parent="1" source="HDunjQT9ZqvCOJkdYQjt-14">
          <mxGeometry width="50" height="50" relative="1" as="geometry">
            <mxPoint x="1091.9985714285715" y="234.25" as="sourcePoint" />
            <mxPoint x="1315.07" y="232.75" as="targetPoint" />
            <Array as="points" />
          </mxGeometry>
        </mxCell>
        <mxCell id="HDunjQT9ZqvCOJkdYQjt-16" value="1.Accelerate()" style="edgeLabel;html=1;align=center;verticalAlign=middle;resizable=0;points=[];" connectable="0" vertex="1" parent="HDunjQT9ZqvCOJkdYQjt-1">
          <mxGeometry x="-0.2009" y="-2" relative="1" as="geometry">
            <mxPoint x="10" y="-12" as="offset" />
          </mxGeometry>
        </mxCell>
        <mxCell id="HDunjQT9ZqvCOJkdYQjt-9" style="edgeStyle=orthogonalEdgeStyle;rounded=0;orthogonalLoop=1;jettySize=auto;html=1;" edge="1" parent="1">
          <mxGeometry relative="1" as="geometry">
            <Array as="points">
              <mxPoint x="1215" y="393" />
              <mxPoint x="1215" y="393" />
            </Array>
            <mxPoint x="1100" y="393" as="sourcePoint" />
            <mxPoint x="1319" y="393" as="targetPoint" />
          </mxGeometry>
        </mxCell>
        <mxCell id="HDunjQT9ZqvCOJkdYQjt-10" value="3.Break()" style="edgeLabel;html=1;align=center;verticalAlign=middle;resizable=0;points=[];" connectable="0" vertex="1" parent="HDunjQT9ZqvCOJkdYQjt-9">
          <mxGeometry x="0.0453" y="1" relative="1" as="geometry">
            <mxPoint x="-19" y="-9" as="offset" />
          </mxGeometry>
        </mxCell>
        <mxCell id="LqTYvNzgL-PPpx8nboqL-51" style="edgeStyle=orthogonalEdgeStyle;rounded=0;orthogonalLoop=1;jettySize=auto;html=1;exitX=0;exitY=0.25;exitDx=0;exitDy=0;exitPerimeter=0;entryX=0.5;entryY=0;entryDx=0;entryDy=0;endArrow=none;endFill=0;" edge="1" parent="1" source="LqTYvNzgL-PPpx8nboqL-46" target="LqTYvNzgL-PPpx8nboqL-48">
          <mxGeometry relative="1" as="geometry" />
        </mxCell>
        <mxCell id="LqTYvNzgL-PPpx8nboqL-52" style="edgeStyle=orthogonalEdgeStyle;rounded=0;orthogonalLoop=1;jettySize=auto;html=1;exitX=0;exitY=0.75;exitDx=0;exitDy=0;exitPerimeter=0;endArrow=none;endFill=0;" edge="1" parent="1" source="LqTYvNzgL-PPpx8nboqL-46" target="LqTYvNzgL-PPpx8nboqL-50">
          <mxGeometry relative="1" as="geometry" />
        </mxCell>
        <mxCell id="5k7Jx9ibbwUtiM9vaQus-3" style="edgeStyle=orthogonalEdgeStyle;rounded=0;orthogonalLoop=1;jettySize=auto;html=1;exitX=1;exitY=0.5;exitDx=0;exitDy=0;exitPerimeter=0;endArrow=none;endFill=0;" edge="1" parent="1" source="LqTYvNzgL-PPpx8nboqL-46" target="5k7Jx9ibbwUtiM9vaQus-2">
          <mxGeometry relative="1" as="geometry" />
        </mxCell>
        <mxCell id="LqTYvNzgL-PPpx8nboqL-48" value="No request from master for 10 seconds" style="ellipse;whiteSpace=wrap;html=1;" vertex="1" parent="1">
          <mxGeometry x="1656" y="2907" width="239" height="63" as="geometry" />
        </mxCell>
        <mxCell id="LqTYvNzgL-PPpx8nboqL-53" style="edgeStyle=orthogonalEdgeStyle;rounded=0;orthogonalLoop=1;jettySize=auto;html=1;exitX=0.5;exitY=0;exitDx=0;exitDy=0;endArrow=none;endFill=0;" edge="1" parent="1" source="LqTYvNzgL-PPpx8nboqL-49" target="LqTYvNzgL-PPpx8nboqL-46">
          <mxGeometry relative="1" as="geometry" />
        </mxCell>
        <mxCell id="LqTYvNzgL-PPpx8nboqL-49" value="No request from a slave for 10 seconds" style="ellipse;whiteSpace=wrap;html=1;" vertex="1" parent="1">
          <mxGeometry x="1929" y="2907" width="243" height="63" as="geometry" />
        </mxCell>
        <mxCell id="LqTYvNzgL-PPpx8nboqL-50" value="One of the vehicles send an emergency signal" style="ellipse;whiteSpace=wrap;html=1;" vertex="1" parent="1">
          <mxGeometry x="2209" y="2907" width="272" height="63" as="geometry" />
        </mxCell>
        <mxCell id="5k7Jx9ibbwUtiM9vaQus-2" value="Update trip state to emergency" style="rounded=1;whiteSpace=wrap;html=1;" vertex="1" parent="1">
          <mxGeometry x="1990.5" y="2496" width="120" height="60" as="geometry" />
        </mxCell>
        <mxCell id="5k7Jx9ibbwUtiM9vaQus-5" value="" style="group" connectable="0" vertex="1" parent="1">
          <mxGeometry x="2020.5" y="2614" width="60" height="114" as="geometry" />
        </mxCell>
        <mxCell id="5k7Jx9ibbwUtiM9vaQus-4" value="" style="endArrow=none;html=1;rounded=0;" edge="1" parent="5k7Jx9ibbwUtiM9vaQus-5">
          <mxGeometry width="50" height="50" relative="1" as="geometry">
            <mxPoint x="30" y="114" as="sourcePoint" />
            <mxPoint x="30" y="52" as="targetPoint" />
          </mxGeometry>
        </mxCell>
        <mxCell id="LqTYvNzgL-PPpx8nboqL-46" value="" style="verticalLabelPosition=bottom;shadow=0;dashed=0;align=center;html=1;verticalAlign=top;shape=mxgraph.electrical.logic_gates.logic_gate;operation=or;rotation=-90;fillColor=default;" vertex="1" parent="5k7Jx9ibbwUtiM9vaQus-5">
          <mxGeometry x="-20" y="20" width="100" height="60" as="geometry" />
        </mxCell>
        <mxCell id="A5CYY7WM_2Bm9-1TM9zm-1" value="Master" style="shape=umlLifeline;perimeter=lifelinePerimeter;whiteSpace=wrap;html=1;container=1;dropTarget=0;collapsible=0;recursiveResize=0;outlineConnect=0;portConstraint=eastwest;newEdgeStyle={&quot;curved&quot;:0,&quot;rounded&quot;:0};" vertex="1" parent="1">
          <mxGeometry x="4202" y="2556" width="100" height="379" as="geometry" />
        </mxCell>
        <mxCell id="A5CYY7WM_2Bm9-1TM9zm-2" value="Server" style="shape=umlLifeline;perimeter=lifelinePerimeter;whiteSpace=wrap;html=1;container=1;dropTarget=0;collapsible=0;recursiveResize=0;outlineConnect=0;portConstraint=eastwest;newEdgeStyle={&quot;curved&quot;:0,&quot;rounded&quot;:0};" vertex="1" parent="1">
          <mxGeometry x="4437" y="2556" width="100" height="378" as="geometry" />
        </mxCell>
        <mxCell id="A5CYY7WM_2Bm9-1TM9zm-3" value="" style="endArrow=classic;html=1;rounded=0;" edge="1" parent="1">
          <mxGeometry width="50" height="50" relative="1" as="geometry">
            <mxPoint x="4257" y="2659" as="sourcePoint" />
            <mxPoint x="4489.5" y="2659" as="targetPoint" />
          </mxGeometry>
        </mxCell>
        <mxCell id="A5CYY7WM_2Bm9-1TM9zm-4" value="Master sending Speed" style="edgeLabel;html=1;align=center;verticalAlign=middle;resizable=0;points=[];" connectable="0" vertex="1" parent="A5CYY7WM_2Bm9-1TM9zm-3">
          <mxGeometry x="0.1051" y="1" relative="1" as="geometry">
            <mxPoint x="-8" y="-9" as="offset" />
          </mxGeometry>
        </mxCell>
        <mxCell id="A5CYY7WM_2Bm9-1TM9zm-5" value="&lt;b&gt;&lt;font style=&quot;font-size: 24px;&quot;&gt;Master Coupled with server&amp;nbsp;&lt;/font&gt;&lt;/b&gt;" style="text;html=1;strokeColor=none;fillColor=none;align=center;verticalAlign=middle;whiteSpace=wrap;rounded=0;" vertex="1" parent="1">
          <mxGeometry x="4192" y="2404" width="357" height="111" as="geometry" />
        </mxCell>
        <mxCell id="A5CYY7WM_2Bm9-1TM9zm-6" value="" style="endArrow=classic;html=1;rounded=0;" edge="1" parent="1" target="A5CYY7WM_2Bm9-1TM9zm-2">
          <mxGeometry width="50" height="50" relative="1" as="geometry">
            <mxPoint x="4254" y="2727" as="sourcePoint" />
            <mxPoint x="4304" y="2677" as="targetPoint" />
          </mxGeometry>
        </mxCell>
        <mxCell id="A5CYY7WM_2Bm9-1TM9zm-7" value="Master sending Steering angel&lt;br&gt;" style="edgeLabel;html=1;align=center;verticalAlign=middle;resizable=0;points=[];" connectable="0" vertex="1" parent="A5CYY7WM_2Bm9-1TM9zm-6">
          <mxGeometry x="0.2092" y="3" relative="1" as="geometry">
            <mxPoint x="-12" y="-10" as="offset" />
          </mxGeometry>
        </mxCell>
        <mxCell id="A5CYY7WM_2Bm9-1TM9zm-8" value="" style="endArrow=classic;html=1;rounded=0;" edge="1" parent="1" target="A5CYY7WM_2Bm9-1TM9zm-2">
          <mxGeometry width="50" height="50" relative="1" as="geometry">
            <mxPoint x="4253" y="2793" as="sourcePoint" />
            <mxPoint x="4303" y="2743" as="targetPoint" />
          </mxGeometry>
        </mxCell>
        <mxCell id="A5CYY7WM_2Bm9-1TM9zm-21" value="Location" style="edgeLabel;html=1;align=center;verticalAlign=middle;resizable=0;points=[];" connectable="0" vertex="1" parent="A5CYY7WM_2Bm9-1TM9zm-8">
          <mxGeometry x="0.5305" y="3" relative="1" as="geometry">
            <mxPoint x="-52" y="-6" as="offset" />
          </mxGeometry>
        </mxCell>
        <mxCell id="A5CYY7WM_2Bm9-1TM9zm-9" value="Master" style="shape=umlLifeline;perimeter=lifelinePerimeter;whiteSpace=wrap;html=1;container=1;dropTarget=0;collapsible=0;recursiveResize=0;outlineConnect=0;portConstraint=eastwest;newEdgeStyle={&quot;curved&quot;:0,&quot;rounded&quot;:0};" vertex="1" parent="1">
          <mxGeometry x="4597" y="2568" width="100" height="369" as="geometry" />
        </mxCell>
        <mxCell id="A5CYY7WM_2Bm9-1TM9zm-10" value="Slave" style="shape=umlLifeline;perimeter=lifelinePerimeter;whiteSpace=wrap;html=1;container=1;dropTarget=0;collapsible=0;recursiveResize=0;outlineConnect=0;portConstraint=eastwest;newEdgeStyle={&quot;curved&quot;:0,&quot;rounded&quot;:0};" vertex="1" parent="1">
          <mxGeometry x="4832" y="2568" width="100" height="374" as="geometry" />
        </mxCell>
        <mxCell id="A5CYY7WM_2Bm9-1TM9zm-11" value="" style="endArrow=classic;html=1;rounded=0;" edge="1" parent="1">
          <mxGeometry width="50" height="50" relative="1" as="geometry">
            <mxPoint x="4652" y="2671" as="sourcePoint" />
            <mxPoint x="4884.5" y="2671" as="targetPoint" />
          </mxGeometry>
        </mxCell>
        <mxCell id="A5CYY7WM_2Bm9-1TM9zm-12" value="Master sending Speed" style="edgeLabel;html=1;align=center;verticalAlign=middle;resizable=0;points=[];" connectable="0" vertex="1" parent="A5CYY7WM_2Bm9-1TM9zm-11">
          <mxGeometry x="0.1051" y="1" relative="1" as="geometry">
            <mxPoint x="-8" y="-9" as="offset" />
          </mxGeometry>
        </mxCell>
        <mxCell id="A5CYY7WM_2Bm9-1TM9zm-13" value="&lt;b&gt;&lt;font style=&quot;font-size: 24px;&quot;&gt;Master Coupled with Slave&lt;/font&gt;&lt;/b&gt;" style="text;html=1;strokeColor=none;fillColor=none;align=center;verticalAlign=middle;whiteSpace=wrap;rounded=0;" vertex="1" parent="1">
          <mxGeometry x="4597" y="2400" width="357" height="111" as="geometry" />
        </mxCell>
        <mxCell id="A5CYY7WM_2Bm9-1TM9zm-14" value="" style="endArrow=classic;html=1;rounded=0;" edge="1" parent="1" target="A5CYY7WM_2Bm9-1TM9zm-10">
          <mxGeometry width="50" height="50" relative="1" as="geometry">
            <mxPoint x="4649" y="2739" as="sourcePoint" />
            <mxPoint x="4699" y="2689" as="targetPoint" />
          </mxGeometry>
        </mxCell>
        <mxCell id="A5CYY7WM_2Bm9-1TM9zm-15" value="Master sending Steering angel&lt;br&gt;" style="edgeLabel;html=1;align=center;verticalAlign=middle;resizable=0;points=[];" connectable="0" vertex="1" parent="A5CYY7WM_2Bm9-1TM9zm-14">
          <mxGeometry x="0.2092" y="3" relative="1" as="geometry">
            <mxPoint x="-12" y="-10" as="offset" />
          </mxGeometry>
        </mxCell>
        <mxCell id="A5CYY7WM_2Bm9-1TM9zm-16" value="" style="endArrow=classic;html=1;rounded=0;" edge="1" parent="1" target="A5CYY7WM_2Bm9-1TM9zm-10">
          <mxGeometry width="50" height="50" relative="1" as="geometry">
            <mxPoint x="4648" y="2805" as="sourcePoint" />
            <mxPoint x="4698" y="2755" as="targetPoint" />
          </mxGeometry>
        </mxCell>
        <mxCell id="A5CYY7WM_2Bm9-1TM9zm-17" value="Location&lt;br&gt;" style="edgeLabel;html=1;align=center;verticalAlign=middle;resizable=0;points=[];" connectable="0" vertex="1" parent="A5CYY7WM_2Bm9-1TM9zm-16">
          <mxGeometry x="0.377" y="-1" relative="1" as="geometry">
            <mxPoint x="-34" y="-11" as="offset" />
          </mxGeometry>
        </mxCell>
        <mxCell id="A5CYY7WM_2Bm9-1TM9zm-19" value="" style="endArrow=classic;html=1;rounded=0;" edge="1" parent="1">
          <mxGeometry width="50" height="50" relative="1" as="geometry">
            <mxPoint x="4646" y="2866" as="sourcePoint" />
            <mxPoint x="4878.500000000001" y="2866" as="targetPoint" />
          </mxGeometry>
        </mxCell>
        <mxCell id="A5CYY7WM_2Bm9-1TM9zm-20" value="Path" style="edgeLabel;html=1;align=center;verticalAlign=middle;resizable=0;points=[];" connectable="0" vertex="1" parent="A5CYY7WM_2Bm9-1TM9zm-19">
          <mxGeometry x="0.1751" y="2" relative="1" as="geometry">
            <mxPoint x="-10" y="-8" as="offset" />
          </mxGeometry>
        </mxCell>
        <mxCell id="A5CYY7WM_2Bm9-1TM9zm-22" value="" style="endArrow=classic;html=1;rounded=0;" edge="1" parent="1">
          <mxGeometry width="50" height="50" relative="1" as="geometry">
            <mxPoint x="4254.75" y="2870" as="sourcePoint" />
            <mxPoint x="4486.250000000001" y="2870" as="targetPoint" />
          </mxGeometry>
        </mxCell>
        <mxCell id="A5CYY7WM_2Bm9-1TM9zm-23" value="Path" style="edgeLabel;html=1;align=center;verticalAlign=middle;resizable=0;points=[];" connectable="0" vertex="1" parent="A5CYY7WM_2Bm9-1TM9zm-22">
          <mxGeometry x="0.5126" relative="1" as="geometry">
            <mxPoint x="-60" y="-10" as="offset" />
          </mxGeometry>
        </mxCell>
        <mxCell id="pMuibLVsuA4GQpmYCpPP-3" style="edgeStyle=orthogonalEdgeStyle;rounded=0;orthogonalLoop=1;jettySize=auto;html=1;exitX=0.5;exitY=0;exitDx=0;exitDy=0;" edge="1" parent="1" source="XZ4GKWzbMaa0q8jUKffn-32" target="jdqn0smxBB6up9CHiJCb-14">
          <mxGeometry relative="1" as="geometry" />
        </mxCell>
        <mxCell id="XZ4GKWzbMaa0q8jUKffn-32" value="Master Interface" style="swimlane;fontStyle=1;align=center;verticalAlign=top;childLayout=stackLayout;horizontal=1;startSize=26;horizontalStack=0;resizeParent=1;resizeParentMax=0;resizeLast=0;collapsible=1;marginBottom=0;whiteSpace=wrap;html=1;" vertex="1" parent="1">
          <mxGeometry x="3030" y="1790" width="230" height="80" as="geometry" />
        </mxCell>
        <mxCell id="XZ4GKWzbMaa0q8jUKffn-33" value="+ number: String" style="text;strokeColor=none;fillColor=none;align=left;verticalAlign=top;spacingLeft=4;spacingRight=4;overflow=hidden;rotatable=0;points=[[0,0.5],[1,0.5]];portConstraint=eastwest;whiteSpace=wrap;html=1;" vertex="1" parent="XZ4GKWzbMaa0q8jUKffn-32">
          <mxGeometry y="26" width="230" height="26" as="geometry" />
        </mxCell>
        <mxCell id="XZ4GKWzbMaa0q8jUKffn-34" value="+ location: Point" style="text;strokeColor=none;fillColor=none;align=left;verticalAlign=top;spacingLeft=4;spacingRight=4;overflow=hidden;rotatable=0;points=[[0,0.5],[1,0.5]];portConstraint=eastwest;whiteSpace=wrap;html=1;" vertex="1" parent="XZ4GKWzbMaa0q8jUKffn-32">
          <mxGeometry y="52" width="230" height="28" as="geometry" />
        </mxCell>
        <mxCell id="pMuibLVsuA4GQpmYCpPP-26" style="edgeStyle=orthogonalEdgeStyle;rounded=0;orthogonalLoop=1;jettySize=auto;html=1;exitX=0.5;exitY=0;exitDx=0;exitDy=0;" edge="1" parent="1" source="pMuibLVsuA4GQpmYCpPP-13" target="jdqn0smxBB6up9CHiJCb-14">
          <mxGeometry relative="1" as="geometry">
            <Array as="points">
              <mxPoint x="2848" y="1664" />
            </Array>
          </mxGeometry>
        </mxCell>
        <mxCell id="pMuibLVsuA4GQpmYCpPP-13" value="Slave Interface" style="swimlane;fontStyle=1;align=center;verticalAlign=top;childLayout=stackLayout;horizontal=1;startSize=26;horizontalStack=0;resizeParent=1;resizeParentMax=0;resizeLast=0;collapsible=1;marginBottom=0;whiteSpace=wrap;html=1;" vertex="1" parent="1">
          <mxGeometry x="2716" y="1706" width="263" height="320" as="geometry" />
        </mxCell>
        <mxCell id="pMuibLVsuA4GQpmYCpPP-14" value="+ number: String" style="text;strokeColor=none;fillColor=none;align=left;verticalAlign=top;spacingLeft=4;spacingRight=4;overflow=hidden;rotatable=0;points=[[0,0.5],[1,0.5]];portConstraint=eastwest;whiteSpace=wrap;html=1;" vertex="1" parent="pMuibLVsuA4GQpmYCpPP-13">
          <mxGeometry y="26" width="263" height="26" as="geometry" />
        </mxCell>
        <mxCell id="pMuibLVsuA4GQpmYCpPP-17" value="+ location: Point" style="text;strokeColor=none;fillColor=none;align=left;verticalAlign=top;spacingLeft=4;spacingRight=4;overflow=hidden;rotatable=0;points=[[0,0.5],[1,0.5]];portConstraint=eastwest;whiteSpace=wrap;html=1;" vertex="1" parent="pMuibLVsuA4GQpmYCpPP-13">
          <mxGeometry y="52" width="263" height="26" as="geometry" />
        </mxCell>
        <mxCell id="pMuibLVsuA4GQpmYCpPP-18" value="+ masterInterface: MasterInterface" style="text;strokeColor=none;fillColor=none;align=left;verticalAlign=top;spacingLeft=4;spacingRight=4;overflow=hidden;rotatable=0;points=[[0,0.5],[1,0.5]];portConstraint=eastwest;whiteSpace=wrap;html=1;" vertex="1" parent="pMuibLVsuA4GQpmYCpPP-13">
          <mxGeometry y="78" width="263" height="26" as="geometry" />
        </mxCell>
        <mxCell id="pMuibLVsuA4GQpmYCpPP-19" value="+ pathToMaster: Point[]" style="text;strokeColor=none;fillColor=none;align=left;verticalAlign=top;spacingLeft=4;spacingRight=4;overflow=hidden;rotatable=0;points=[[0,0.5],[1,0.5]];portConstraint=eastwest;whiteSpace=wrap;html=1;" vertex="1" parent="pMuibLVsuA4GQpmYCpPP-13">
          <mxGeometry y="104" width="263" height="26" as="geometry" />
        </mxCell>
        <mxCell id="pMuibLVsuA4GQpmYCpPP-20" value="+&amp;nbsp;runThreadFlag: bool" style="text;strokeColor=none;fillColor=none;align=left;verticalAlign=top;spacingLeft=4;spacingRight=4;overflow=hidden;rotatable=0;points=[[0,0.5],[1,0.5]];portConstraint=eastwest;whiteSpace=wrap;html=1;" vertex="1" parent="pMuibLVsuA4GQpmYCpPP-13">
          <mxGeometry y="130" width="263" height="26" as="geometry" />
        </mxCell>
        <mxCell id="pMuibLVsuA4GQpmYCpPP-15" value="" style="line;strokeWidth=1;fillColor=none;align=left;verticalAlign=middle;spacingTop=-1;spacingLeft=3;spacingRight=3;rotatable=0;labelPosition=right;points=[];portConstraint=eastwest;strokeColor=inherit;" vertex="1" parent="pMuibLVsuA4GQpmYCpPP-13">
          <mxGeometry y="156" width="263" height="8" as="geometry" />
        </mxCell>
        <mxCell id="pMuibLVsuA4GQpmYCpPP-16" value="+ updateLocation(newLocation Point): void" style="text;strokeColor=none;fillColor=none;align=left;verticalAlign=top;spacingLeft=4;spacingRight=4;overflow=hidden;rotatable=0;points=[[0,0.5],[1,0.5]];portConstraint=eastwest;whiteSpace=wrap;html=1;" vertex="1" parent="pMuibLVsuA4GQpmYCpPP-13">
          <mxGeometry y="164" width="263" height="26" as="geometry" />
        </mxCell>
        <mxCell id="pMuibLVsuA4GQpmYCpPP-22" value="+ startThread(): void" style="text;strokeColor=none;fillColor=none;align=left;verticalAlign=top;spacingLeft=4;spacingRight=4;overflow=hidden;rotatable=0;points=[[0,0.5],[1,0.5]];portConstraint=eastwest;whiteSpace=wrap;html=1;" vertex="1" parent="pMuibLVsuA4GQpmYCpPP-13">
          <mxGeometry y="190" width="263" height="26" as="geometry" />
        </mxCell>
        <mxCell id="pMuibLVsuA4GQpmYCpPP-23" value="+ endThread(): void" style="text;strokeColor=none;fillColor=none;align=left;verticalAlign=top;spacingLeft=4;spacingRight=4;overflow=hidden;rotatable=0;points=[[0,0.5],[1,0.5]];portConstraint=eastwest;whiteSpace=wrap;html=1;" vertex="1" parent="pMuibLVsuA4GQpmYCpPP-13">
          <mxGeometry y="216" width="263" height="26" as="geometry" />
        </mxCell>
        <mxCell id="pMuibLVsuA4GQpmYCpPP-24" value="-&amp;nbsp;addPointToPath(newPoint: Point): void" style="text;strokeColor=none;fillColor=none;align=left;verticalAlign=top;spacingLeft=4;spacingRight=4;overflow=hidden;rotatable=0;points=[[0,0.5],[1,0.5]];portConstraint=eastwest;whiteSpace=wrap;html=1;" vertex="1" parent="pMuibLVsuA4GQpmYCpPP-13">
          <mxGeometry y="242" width="263" height="26" as="geometry" />
        </mxCell>
        <mxCell id="pMuibLVsuA4GQpmYCpPP-25" value="-&amp;nbsp;popPointFromPath(): void" style="text;strokeColor=none;fillColor=none;align=left;verticalAlign=top;spacingLeft=4;spacingRight=4;overflow=hidden;rotatable=0;points=[[0,0.5],[1,0.5]];portConstraint=eastwest;whiteSpace=wrap;html=1;" vertex="1" parent="pMuibLVsuA4GQpmYCpPP-13">
          <mxGeometry y="268" width="263" height="26" as="geometry" />
        </mxCell>
        <mxCell id="pMuibLVsuA4GQpmYCpPP-29" value="- slaveToMasterThreadFunc(): void" style="text;strokeColor=none;fillColor=none;align=left;verticalAlign=top;spacingLeft=4;spacingRight=4;overflow=hidden;rotatable=0;points=[[0,0.5],[1,0.5]];portConstraint=eastwest;whiteSpace=wrap;html=1;" vertex="1" parent="pMuibLVsuA4GQpmYCpPP-13">
          <mxGeometry y="294" width="263" height="26" as="geometry" />
        </mxCell>
        <mxCell id="pMuibLVsuA4GQpmYCpPP-27" style="edgeStyle=orthogonalEdgeStyle;rounded=0;orthogonalLoop=1;jettySize=auto;html=1;exitX=1;exitY=0.5;exitDx=0;exitDy=0;" edge="1" parent="1" source="jdqn0smxBB6up9CHiJCb-34" target="pMuibLVsuA4GQpmYCpPP-13">
          <mxGeometry relative="1" as="geometry">
            <Array as="points">
              <mxPoint x="2703" y="1745" />
              <mxPoint x="2703" y="1745" />
            </Array>
          </mxGeometry>
        </mxCell>
        <mxCell id="pMuibLVsuA4GQpmYCpPP-28" style="edgeStyle=orthogonalEdgeStyle;rounded=0;orthogonalLoop=1;jettySize=auto;html=1;exitX=1;exitY=0.5;exitDx=0;exitDy=0;" edge="1" parent="1" source="jdqn0smxBB6up9CHiJCb-34" target="XZ4GKWzbMaa0q8jUKffn-32">
          <mxGeometry relative="1" as="geometry">
            <Array as="points">
              <mxPoint x="2683" y="2038" />
              <mxPoint x="3145" y="2038" />
            </Array>
          </mxGeometry>
        </mxCell>
      </root>
    </mxGraphModel>
  </diagram>
</mxfile>
